<?xml version="1.0" standalone="no"?>
<!DOCTYPE svg PUBLIC "-//W3C//DTD SVG 20010904//EN"
 "http://www.w3.org/TR/2001/REC-SVG-20010904/DTD/svg10.dtd">
<svg version="1.0" xmlns="http://www.w3.org/2000/svg"
 width="355.000000pt" height="261.000000pt" viewBox="0 0 355.000000 261.000000"
 preserveAspectRatio="xMidYMid meet">
<metadata>
Created by potrace 1.15, written by Peter Selinger 2001-2017
</metadata>
<g transform="translate(0.000000,261.000000) scale(0.100000,-0.100000)"
fill="#000000" stroke="none">
<path d="M703 2535 c-23 -16 -23 -17 -23 -291 l0 -274 -340 0 -340 0 0 -55 0
-55 340 0 340 0 0 -530 0 -530 -340 0 -340 0 0 -55 0 -55 340 0 340 0 0 -298
c0 -280 1 -300 19 -316 17 -16 66 -17 647 -14 l629 4 95 27 c443 128 772 521
844 1009 9 58 16 120 16 137 l0 31 310 0 310 0 0 60 0 60 -310 0 c-170 0 -310
3 -310 8 0 49 -37 231 -65 317 -128 407 -429 704 -820 807 -77 21 -106 22
-700 25 -556 4 -622 2 -642 -12z m1327 -127 c184 -50 322 -132 456 -270 157
-162 252 -341 304 -573 18 -80 23 -131 23 -255 1 -162 -8 -225 -49 -367 -94
-326 -347 -606 -641 -713 -158 -57 -201 -60 -794 -60 l-539 0 0 1136 0 1135
573 -3 572 -4 95 -26z"/>
</g>
</svg>
