<?xml version="1.0" encoding="UTF-8" standalone="no"?>
<svg
   xmlns:dc="http://purl.org/dc/elements/1.1/"
   xmlns:cc="http://creativecommons.org/ns#"
   xmlns:rdf="http://www.w3.org/1999/02/22-rdf-syntax-ns#"
   xmlns:svg="http://www.w3.org/2000/svg"
   xmlns="http://www.w3.org/2000/svg"
   xmlns:sodipodi="http://sodipodi.sourceforge.net/DTD/sodipodi-0.dtd"
   xmlns:inkscape="http://www.inkscape.org/namespaces/inkscape"
   sodipodi:docname="banner.svg"
   id="svg819"
   version="1.1"
   enable-background="new 0 0 1140 360"
   viewBox="0 0 1140 360"
   inkscape:version="0.92.3 (2405546, 2018-03-11)">
  <sodipodi:namedview
     inkscape:current-layer="g1776"
     inkscape:window-maximized="1"
     inkscape:window-y="-8"
     inkscape:window-x="-8"
     inkscape:cy="201.07867"
     inkscape:cx="590.06239"
     inkscape:zoom="0.51578947"
     showgrid="false"
     id="namedview821"
     inkscape:window-height="705"
     inkscape:window-width="1366"
     inkscape:pageshadow="2"
     inkscape:pageopacity="0"
     guidetolerance="10"
     gridtolerance="10"
     objecttolerance="10"
     borderopacity="1"
     bordercolor="#666666"
     pagecolor="#ffffff" />
  <metadata
     id="metadata825">
    <rdf:RDF>
      <cc:Work
         rdf:about="">
        <dc:format>image/svg+xml</dc:format>
        <dc:type
           rdf:resource="http://purl.org/dc/dcmitype/StillImage" />
      </cc:Work>
    </rdf:RDF>
  </metadata>
  <defs
     id="defs823">
    <inkscape:perspective
       sodipodi:type="inkscape:persp3d"
       inkscape:vp_x="780.29305 : 58.231233 : 1"
       inkscape:vp_y="-0.57075519 : 1.0409011 : 0"
       inkscape:vp_z="0.24670785 : 0.13740583 : 0"
       inkscape:persp3d-origin="780.57645 : 58.232819 : 1"
       id="perspective1683" />
    <inkscape:perspective
       sodipodi:type="inkscape:persp3d"
       inkscape:vp_x="0.66581811 : 0.38257431 : 1"
       inkscape:vp_y="-0.50448434 : 2.6445995 : 0"
       inkscape:vp_z="0.4946156 : 0.16153725 : 0"
       inkscape:persp3d-origin="1.1604337 : 0.22103706 : 1"
       id="perspective10756" />
  </defs>
  <g
     id="g1776">
    <g
       id="g1623">
      <path
         d="M0 0h1140v360h-1140v-360z"
         id="path815"
         fill="#56B4D9" />
    </g>
    <g
       transform="matrix(0.56229693,0,0,0.81427681,506.9454,-58.139242)"
       id="g4356"
       style="font-style:normal;font-weight:normal;font-size:40px;line-height:1.25;font-family:sans-serif;letter-spacing:0px;word-spacing:0px;fill:#6700ff;fill-opacity:1;stroke:#000000;stroke-width:0.87704253;stroke-miterlimit:4;stroke-dasharray:none;stroke-dashoffset:0;stroke-opacity:1"
       aria-label="0101010000011110101001001000101010100101010001010100000000101010100">
      <path
         style="fill:#6700ff;fill-opacity:1;stroke:#000000;stroke-width:0.87704253;stroke-miterlimit:4;stroke-dasharray:none;stroke-dashoffset:0;stroke-opacity:1"
         inkscape:connector-curvature="0"
         id="path9522"
         d="m 509.8153,230.17157 c 0.97888,-0.0827 1.61881,0.25941 1.92586,1.0718 0.30171,0.80671 0.26733,2.08376 -0.10279,3.8311 -0.36874,1.74083 -0.88814,3.08048 -1.56194,3.99 -0.6792,0.90492 -1.5095,1.39934 -2.49266,1.3998 -0.99093,4.7e-4 -1.63996,-0.4578 -1.94765,-1.3185 -0.3131,-0.86735 -0.28396,-2.14123 0.0878,-3.82161 0.37315,-1.68668 0.90231,-2.93355 1.58805,-3.77801 0.68028,-0.84962 1.51669,-1.29127 2.50332,-1.37458 0,0 0,0 0,0 m 0.29026,-1.35431 c -1.578,0.13167 -2.91274,0.69261 -3.98944,1.73609 -1.08284,1.03863 -1.84839,2.52805 -2.30121,4.55141 -0.45136,2.01681 -0.37899,3.62385 0.21618,4.8206 0.58918,1.18853 1.67719,1.86459 3.26217,1.86226 1.58122,-0.002 2.90533,-0.6724 3.9703,-1.905 1.05895,-1.23627 1.8092,-2.95404 2.25916,-5.10655 0.45141,-2.15949 0.38838,-3.73712 -0.18998,-4.73309 -0.58425,-1.00223 -1.65295,-1.35707 -3.22718,-1.22572 0,0 0,0 0,0" />
      <path
         style="fill:#6700ff;fill-opacity:1;stroke:#000000;stroke-width:0.87704253;stroke-miterlimit:4;stroke-dasharray:none;stroke-dashoffset:0;stroke-opacity:1"
         inkscape:connector-curvature="0"
         id="path9524"
         d="m 499.29563,238.40418 c 0,0 -2.41285,-2.01752 -2.41285,-2.01752 0,0 1.48857,-8.08828 1.48857,-8.08828 0,0 2.95368,2.10034 2.95368,2.10034 0,0 0.32074,-1.4387 0.32074,-1.4387 0,0 -2.98166,-2.00204 -2.98166,-2.00204 0,0 -1.47226,-1.27902 -1.47226,-1.27902 0,0 -1.20479,9.01429 -1.20479,9.01429 0,0 0.13036,-3.11771 0.13036,-3.11771 0,0 0.12529,1.14202 0.12529,1.14202 0,0 2.78372,6.95084 2.78372,6.95084 0,0 0.2692,-1.26422 0.2692,-1.26422" />
      <path
         style="fill:#6700ff;fill-opacity:1;stroke:#000000;stroke-width:0.87704253;stroke-miterlimit:4;stroke-dasharray:none;stroke-dashoffset:0;stroke-opacity:1"
         inkscape:connector-curvature="0"
         id="path9526"
         d="m 500.68664,217.80701 c -0.91278,0.46302 -1.4996,1.23215 -1.78227,2.2686 -0.27782,1.02706 -0.25542,2.31035 0.0669,3.85006 0.32109,1.53396 0.78691,2.56666 1.40919,3.11975 0.62735,0.54538 1.41322,0.62562 2.35233,0.22689 0.94657,-0.4019 1.59937,-1.0241 1.90625,-1.99686 0.31221,-0.98121 0.29319,-2.27381 -0.0574,-3.87765 -0.35193,-1.60987 -0.85951,-2.72509 -1.52235,-3.34483 -0.65748,-0.62693 -1.45258,-0.71265 -2.37261,-0.24596 0,0 0,0 0,0 m -0.26131,-1.2224 c 1.47151,-0.74808 2.76481,-0.6809 3.80861,0.0581 1.04986,0.73214 1.81087,2.14649 2.24983,4.14609 0.43754,1.99309 0.35282,3.64508 -0.25322,4.95529 -0.59994,1.3009 -1.68245,2.2061 -3.22889,2.76521 -1.54268,0.55776 -2.77158,0.63206 -3.72459,0.0837 -0.94754,-0.55615 -1.59742,-1.74105 -1.9399,-3.55069 -0.34359,-1.81554 -0.28459,-3.48645 0.1777,-5.01371 0.467,-1.53889 1.44252,-2.69768 2.91046,-3.44394 0,0 0,0 0,0" />
      <path
         style="fill:#6700ff;fill-opacity:1;stroke:#000000;stroke-width:0.87704253;stroke-miterlimit:4;stroke-dasharray:none;stroke-dashoffset:0;stroke-opacity:1"
         inkscape:connector-curvature="0"
         id="path9528"
         d="m 511.26791,224.48551 c 0,0 3.24116,-0.57281 3.24116,-0.57281 0,0 -2.04847,-9.35393 -2.04847,-9.35393 0,0 -3.37465,1.34378 -3.37465,1.34378 0,0 -0.32719,-1.48881 -0.32719,-1.48881 0,0 3.35186,-1.35823 3.35186,-1.35823 0,0 1.9918,-0.36589 1.9918,-0.36589 0,0 2.38884,10.93795 2.38884,10.93795 0,0 3.29791,-0.35376 3.29791,-0.35376 0,0 0.30848,1.42325 0.30848,1.42325 0,0 -8.52557,1.17301 -8.52557,1.17301 0,0 -0.30417,-1.38456 -0.30417,-1.38456" />
      <path
         style="fill:#6700ff;fill-opacity:1;stroke:#000000;stroke-width:0.87704253;stroke-miterlimit:4;stroke-dasharray:none;stroke-dashoffset:0;stroke-opacity:1"
         inkscape:connector-curvature="0"
         id="path9530"
         d="m 526.12781,212.60696 c -1.05906,0.0565 -1.76191,0.53634 -2.10952,1.43897 -0.3417,0.89567 -0.32507,2.21639 0.0495,3.96216 0.37315,1.73923 0.91702,3.03203 1.63202,3.87939 0.72093,0.84181 1.60982,1.21299 2.67014,1.2066 1.06876,-0.006 1.77671,-0.44943 2.12288,-1.32962 0.35213,-0.88688 0.34157,-2.21142 -0.0321,-3.97359 -0.37508,-1.7688 -0.92576,-3.08985 -1.65161,-3.96214 -0.71988,-0.87766 -1.61379,-1.27869 -2.68128,-1.22177 0,0 0,0 0,0 m -0.29234,-1.3655 c 1.70739,-0.0927 3.1352,0.44375 4.28016,1.5758 1.1517,1.12733 1.95829,2.779 2.4187,4.95319 0.45889,2.16709 0.35362,3.82491 -0.3148,4.97306 -0.66171,1.1405 -1.84848,1.71437 -3.55795,1.72297 -1.70525,0.009 -3.12451,-0.45368 -4.26405,-1.53281 -1.13289,-1.08403 -1.92672,-2.67441 -2.38346,-4.78646 -0.45823,-2.11895 -0.36377,-3.77735 0.28439,-4.97568 0.65473,-1.20655 1.83384,-1.83754 3.53701,-1.93007 0,0 0,0 0,0" />
      <path
         style="fill:#6700ff;fill-opacity:1;stroke:#000000;stroke-width:0.87704253;stroke-miterlimit:4;stroke-dasharray:none;stroke-dashoffset:0;stroke-opacity:1"
         inkscape:connector-curvature="0"
         id="path9532"
         d="m 537.61369,222.86153 c 0,0 3.41554,0.19035 3.41554,0.19035 0,0 -2.07684,-10.02293 -2.07684,-10.02293 0,0 -3.58656,0.52627 -3.58656,0.52627 0,0 -0.33647,-1.60577 -0.33647,-1.60577 0,0 3.56624,-0.54346 3.56624,-0.54346 0,0 2.09795,0.11718 2.09795,0.11718 0,0 2.41309,11.66193 2.41309,11.66193 0,0 3.43375,0.31486 3.43375,0.31486 0,0 0.30872,1.50965 0.30872,1.50965 0,0 -8.9255,-0.66873 -8.9255,-0.66873 0,0 -0.30992,-1.47935 -0.30992,-1.47935" />
      <path
         style="fill:#6700ff;fill-opacity:1;stroke:#000000;stroke-width:0.87704253;stroke-miterlimit:4;stroke-dasharray:none;stroke-dashoffset:0;stroke-opacity:1"
         inkscape:connector-curvature="0"
         id="path9534"
         d="m 553.18265,213.85346 c -1.09299,-0.13546 -1.82194,0.22526 -2.18783,1.08135 -0.35974,0.85006 -0.35328,2.19836 0.019,4.04482 0.37084,1.83953 0.92139,3.25547 1.65208,4.24892 0.73686,0.98889 1.64927,1.56927 2.73666,1.75129 1.09609,0.18347 1.82571,-0.14174 2.18786,-0.97651 0.36832,-0.84053 0.36821,-2.19125 -7.6e-4,-4.05219 -0.37037,-1.86797 -0.92446,-3.31118 -1.66182,-4.32848 -0.73118,-1.0217 -1.6434,-1.63265 -2.74514,-1.7692 0,0 0,0 0,0 m -0.2905,-1.44425 c 1.76219,0.21663 3.21869,1.05918 4.3838,2.41551 1.1721,1.35273 1.98238,3.19758 2.43376,5.51081 0.4499,2.30566 0.32933,3.97062 -0.36062,4.99469 -0.68304,1.0177 -1.9054,1.39418 -3.65858,1.09895 -1.74877,-0.29448 -3.20974,-1.0656 -4.37648,-2.37252 -1.1598,-1.31068 -1.96684,-3.09275 -2.42217,-5.34823 -0.45682,-2.26288 -0.34571,-3.9305 0.33439,-5.00313 0.687,-1.07955 1.90815,-1.51216 3.6659,-1.29608 0,0 0,0 0,0" />
      <path
         style="fill:#6700ff;fill-opacity:1;stroke:#000000;stroke-width:0.87704253;stroke-miterlimit:4;stroke-dasharray:none;stroke-dashoffset:0;stroke-opacity:1"
         inkscape:connector-curvature="0"
         id="path9536"
         d="m 566.87276,216.4925 c -1.09038,-0.26619 -1.81937,0.0114 -2.18795,0.83178 -0.36241,0.81503 -0.3613,2.17612 0.003,4.08317 0.36282,1.89988 0.90669,3.39369 1.63204,4.4826 0.73152,1.08506 1.63774,1.78087 2.71723,2.09625 1.08813,0.31791 1.80258,0.11622 2.16249,-0.67174 0.36602,-0.79287 0.37119,-2.15533 0.0151,-4.0875 -0.35745,-1.93948 -0.8975,-3.4779 -1.61971,-4.61405 -0.7161,-1.13965 -1.62296,-1.85218 -2.72208,-2.12051 0,0 0,0 0,0 m -0.28423,-1.49161 c 1.75803,0.42736 3.19499,1.46638 4.33715,3.0083 1.14906,1.53936 1.92551,3.55459 2.35899,5.95378 0.43204,2.39132 0.30743,4.05287 -0.37276,4.9846 -0.67338,0.92631 -1.85407,1.04595 -3.59454,0.53566 -1.73604,-0.509 -3.19082,-1.46111 -4.3501,-2.91799 -1.15235,-1.45983 -1.95365,-3.34073 -2.40358,-5.65096 -0.4514,-2.31782 -0.33275,-3.99223 0.35703,-5.02342 0.69678,-1.03766 1.91426,-1.31625 3.66781,-0.88997 0,0 0,0 0,0" />
      <path
         style="fill:#6700ff;fill-opacity:1;stroke:#000000;stroke-width:0.87704253;stroke-miterlimit:4;stroke-dasharray:none;stroke-dashoffset:0;stroke-opacity:1"
         inkscape:connector-curvature="0"
         id="path9538"
         d="m 580.18817,221.39499 c -1.01065,-0.53426 -1.72592,-0.3567 -2.08038,0.39941 -0.34856,0.75188 -0.35259,2.12444 -0.0125,4.11749 0.33881,1.98554 0.85173,3.59659 1.53918,4.83441 0.69337,1.23513 1.52335,2.16704 2.53399,2.71009 1.01876,0.54741 1.64181,0.55843 1.97307,-0.1498 0.33685,-0.71171 0.34638,-2.08365 0.0282,-4.11604 -0.31941,-2.04008 -0.80689,-3.71954 -1.46203,-5.03702 -0.64955,-1.31955 -1.50075,-2.21999 -2.51951,-2.75854 0,0 0,0 0,0 m -0.25827,-1.57302 c 1.62951,0.85956 2.95755,2.2139 3.99455,4.04059 1.04333,1.82578 1.70279,4.08215 2.07182,6.6234 0.36782,2.53289 0.25391,4.1714 -0.34077,4.91581 -0.58871,0.74088 -1.66511,0.61192 -3.23783,-0.36382 -1.56868,-0.97323 -2.97536,-2.1793 -4.07513,-3.87182 -1.09314,-1.69414 -1.86442,-3.71819 -2.28936,-6.13258 -0.42634,-2.42235 -0.30558,-4.08856 0.36333,-4.99863 0.67569,-0.9153 1.88808,-1.0703 3.51339,-0.21295 0,0 0,0 0,0" />
      <path
         style="fill:#6700ff;fill-opacity:1;stroke:#000000;stroke-width:0.87704253;stroke-miterlimit:4;stroke-dasharray:none;stroke-dashoffset:0;stroke-opacity:1"
         inkscape:connector-curvature="0"
         id="path9540"
         d="m 591.06595,230.60481 c -0.52393,-1.03832 -1.03219,-1.18137 -1.27515,-0.57163 -0.23894,0.608 -0.24512,1.98817 -0.0188,4.14013 0.22542,2.14384 0.57574,3.98317 0.96409,5.57389 0.39173,1.59099 0.87727,2.9131 1.17529,4.04556 0.30041,1.14157 0.3739,1.47302 0.38944,0.95164 0.0158,-0.52167 0.0165,-1.8963 0.002,-4.12433 -0.0145,-2.23649 -0.0759,-4.20469 -0.2199,-5.89508 -0.14273,-1.68935 -0.48877,-3.07351 -1.01691,-4.12018 0,0 0,0 0,0 m -0.13801,-1.70739 c 0.95076,1.61493 1.31628,3.78566 1.36426,6.22132 0.0483,2.4384 -0.0716,5.03043 -0.15189,7.77226 -0.08,2.7328 -0.002,4.33128 0.0784,4.77425 0.0794,0.44248 0.24756,-0.31846 -0.23296,-2.14627 -0.47926,-1.82307 -1.31512,-3.77601 -2.05879,-5.95017 -0.73915,-2.17293 -1.32219,-4.51228 -1.65202,-7.0944 -0.33092,-2.59065 -0.21497,-4.24108 0.29276,-4.89593 0.51286,-0.65748 1.41201,-0.29179 2.36029,1.31894 0,0 0,0 0,0" />
      <path
         style="fill:#6700ff;fill-opacity:1;stroke:#000000;stroke-width:0.87704253;stroke-miterlimit:4;stroke-dasharray:none;stroke-dashoffset:0;stroke-opacity:1"
         inkscape:connector-curvature="0"
         id="path9542"
         d="m 588.56218,244.15573 c 0.78516,-0.89184 1.22804,-1.09272 1.45768,-0.49781 0.22584,0.59348 0.23486,1.98243 0.0273,4.16646 -0.20675,2.17579 -0.53211,4.05313 -1.02189,5.59805 -0.49407,1.54471 -1.1691,2.73602 -2.00427,3.59043 -0.8419,0.8613 -1.48378,0.89507 -1.7925,0.23824 -0.3139,-0.65933 -0.34693,-2.06834 -0.053,-4.17275 0.29505,-2.1124 0.71809,-3.9244 1.31133,-5.38372 0.58808,-1.46036 1.28383,-2.63987 2.07531,-3.5389 0,0 0,0 0,0 m 0.1904,-1.68651 c -1.20514,1.487 -2.4443,3.10976 -3.38499,5.15714 -0.94652,2.04767 -1.6575,4.30544 -2.03467,6.88148 -0.37592,2.56753 -0.22705,4.25394 0.38903,4.98344 0.6099,0.72615 1.74832,0.56836 3.09494,-0.8112 1.34308,-1.37595 2.40386,-3.16528 3.09732,-5.41201 0.6892,-2.24513 1.08024,-4.74991 1.27081,-7.45316 0.19121,-2.71219 0.15779,-4.31195 -0.19697,-4.84572 -0.35834,-0.53516 -1.03349,0.0169 -2.23547,1.50003 0,0 0,0 0,0" />
      <path
         style="fill:#6700ff;fill-opacity:1;stroke:#000000;stroke-width:0.87704253;stroke-miterlimit:4;stroke-dasharray:none;stroke-dashoffset:0;stroke-opacity:1"
         inkscape:connector-curvature="0"
         id="path9544"
         d="m 578.63346,262.80753 c 0,0 -3.39906,1.82372 -3.39906,1.82372 0,0 1.84942,-11.45751 1.84942,-11.45751 0,0 3.50925,-1.35624 3.50925,-1.35624 0,0 0.28491,-1.87412 0.28491,-1.87412 0,0 -3.47558,1.36284 -3.47558,1.36284 0,0 -2.10604,1.07118 -2.10604,1.07118 0,0 -2.18276,13.26122 -2.18276,13.26122 0,0 -3.57094,1.54298 -3.57094,1.54298 0,0 -0.28897,1.68372 -0.28897,1.68372 0,0 9.11025,-4.3435 9.11025,-4.3435 0,0 0.26952,-1.71429 0.26952,-1.71429" />
      <path
         style="fill:#6700ff;fill-opacity:1;stroke:#000000;stroke-width:0.87704253;stroke-miterlimit:4;stroke-dasharray:none;stroke-dashoffset:0;stroke-opacity:1"
         inkscape:connector-curvature="0"
         id="path9546"
         d="m 564.6061,269.01548 c 0,0 -3.74567,1.21696 -3.74567,1.21696 0,0 1.98099,-11.24485 1.98099,-11.24485 0,0 3.92731,-0.64799 3.92731,-0.64799 0,0 0.31601,-1.8278 0.31601,-1.8278 0,0 -3.90006,0.64859 -3.90006,0.64859 0,0 -2.3065,0.71724 -2.3065,0.71724 0,0 -2.32177,13.01645 -2.32177,13.01645 0,0 -3.83039,1.04978 -3.83039,1.04978 0,0 -0.30017,1.66415 -0.30017,1.66415 0,0 9.88802,-2.9123 9.88802,-2.9123 0,0 0.29223,-1.68023 0.29223,-1.68023" />
      <path
         style="fill:#6700ff;fill-opacity:1;stroke:#000000;stroke-width:0.87704253;stroke-miterlimit:4;stroke-dasharray:none;stroke-dashoffset:0;stroke-opacity:1"
         inkscape:connector-curvature="0"
         id="path9548"
         d="m 549.50084,273.21263 c 0,0 -3.9299,0.85348 -3.9299,0.85348 0,0 2.03211,-11.15408 2.03211,-11.15408 0,0 4.13887,-0.227 4.13887,-0.227 0,0 0.32587,-1.81293 0.32587,-1.81293 0,0 -4.11281,0.22597 -4.11281,0.22597 0,0 -2.41834,0.49449 -2.41834,0.49449 0,0 -2.36825,12.94235 -2.36825,12.94235 0,0 -3.99125,0.72172 -3.99125,0.72172 0,0 -0.30501,1.65623 -0.30501,1.65623 0,0 10.32658,-2.03913 10.32658,-2.03913 0,0 0.30213,-1.6611 0.30213,-1.6611" />
      <path
         style="fill:#6700ff;fill-opacity:1;stroke:#000000;stroke-width:0.87704253;stroke-miterlimit:4;stroke-dasharray:none;stroke-dashoffset:0;stroke-opacity:1"
         inkscape:connector-curvature="0"
         id="path9550"
         d="m 533.75283,276.11327 c 0,0 -4.06911,0.55923 -4.06911,0.55923 0,0 2.05675,-11.10774 2.05675,-11.10774 0,0 4.29252,0.0966 4.29252,0.0966 0,0 0.33158,-1.80138 0.33158,-1.80138 0,0 -4.26712,-0.10059 -4.26712,-0.10059 0,0 -2.50375,0.31046 -2.50375,0.31046 0,0 -2.39206,12.9033 -2.39206,12.9033 0,0 -4.11902,0.44531 -4.11902,0.44531 0,0 -0.30735,1.65237 -0.30735,1.65237 0,0 10.67155,-1.30286 10.67155,-1.30286 0,0 0.30601,-1.65468 0.30601,-1.65468" />
      <path
         style="fill:#6700ff;fill-opacity:1;stroke:#000000;stroke-width:0.87704253;stroke-miterlimit:4;stroke-dasharray:none;stroke-dashoffset:0;stroke-opacity:1"
         inkscape:connector-curvature="0"
         id="path9552"
         d="m 514.61674,266.69031 c 1.32263,-0.0937 2.22413,0.3372 2.70577,1.2918 0.47386,0.9476 0.52429,2.4218 0.15184,4.42257 -0.37102,1.99315 -0.9787,3.51424 -1.82356,4.56455 -0.85259,1.04509 -1.9406,1.60185 -3.2647,1.67933 -1.33489,0.0781 -2.24305,-0.35951 -2.72316,-1.31377 -0.48798,-0.96137 -0.54665,-2.44001 -0.17545,-4.43595 0.37263,-2.00358 0.98893,-3.52143 1.84836,-4.55227 0.85161,-1.03629 1.94749,-1.56179 3.2809,-1.65626 0,0 0,0 0,0 m 0.29057,-1.56555 c -2.13293,0.14898 -3.8895,0.84213 -5.25855,2.19599 -1.3779,1.34926 -2.29774,3.22356 -2.75538,5.67792 -0.4561,2.44617 -0.23421,4.29196 0.6642,5.53694 0.88943,1.23657 2.4035,1.79384 4.53866,1.66677 2.12927,-0.12671 3.87183,-0.88987 5.2328,-2.2615 1.35226,-1.37594 2.25558,-3.28445 2.71129,-5.72788 0.45724,-2.45161 0.25033,-4.28068 -0.62214,-5.48758 -0.88129,-1.21502 -2.38385,-1.74922 -4.51088,-1.60066 0,0 0,0 0,0" />
      <path
         style="fill:#6700ff;fill-opacity:1;stroke:#000000;stroke-width:0.87704253;stroke-miterlimit:4;stroke-dasharray:none;stroke-dashoffset:0;stroke-opacity:1"
         inkscape:connector-curvature="0"
         id="path9554"
         d="m 500.80273,278.7388 c 0,0 -4.28713,0.0616 -4.28713,0.0616 0,0 2.0668,-11.09158 2.0668,-11.09158 0,0 4.53272,0.64022 4.53272,0.64022 0,0 0.33457,-1.79346 0.33457,-1.79346 0,0 -4.50678,-0.64625 -4.50678,-0.64625 0,0 -2.63675,0.003 -2.63675,0.003 0,0 -2.40066,12.89389 -2.40066,12.89389 0,0 -4.32544,-0.0397 -4.32544,-0.0397 0,0 -0.30762,1.65245 -0.30762,1.65245 0,0 11.22225,-0.028 11.22225,-0.028 0,0 0.30804,-1.65171 0.30804,-1.65171" />
      <path
         style="fill:#6700ff;fill-opacity:1;stroke:#000000;stroke-width:0.87704253;stroke-miterlimit:4;stroke-dasharray:none;stroke-dashoffset:0;stroke-opacity:1"
         inkscape:connector-curvature="0"
         id="path9556"
         d="m 480.60565,266.80244 c 1.38389,0.0808 2.33302,0.60957 2.84639,1.64101 0.50514,1.02336 0.57148,2.5363 0.19964,4.53883 -0.37042,1.99489 -0.9931,3.47994 -1.86859,4.45644 -0.88365,0.97028 -2.01602,1.40949 -3.39948,1.33938 -1.39479,-0.0707 -2.34825,-0.62058 -2.85898,-1.65049 -0.51903,-1.03808 -0.59338,-2.56697 -0.22406,-4.55965 0.37074,-2.00032 1.00126,-3.48552 1.8903,-4.4426 0.88081,-0.96354 2.01955,-1.40433 3.41478,-1.32292 0,0 0,0 0,0 m 0.28984,-1.56212 c -2.23186,-0.13246 -4.06039,0.43845 -5.47782,1.64364 -1.42674,1.19936 -2.36827,3.0299 -2.82312,5.48928 -0.45332,2.45114 -0.20479,4.3636 0.74401,5.73676 0.93932,1.3635 2.52536,2.11331 4.75633,2.22415 2.22468,0.11052 4.04211,-0.46348 5.45533,-1.70907 1.40401,-1.25097 2.33283,-3.09798 2.78785,-5.54335 0.45654,-2.45358 0.22305,-4.34728 -0.70201,-5.68164 -0.9344,-1.34372 -2.51502,-2.02768 -4.74057,-2.15977 0,0 0,0 0,0" />
      <path
         style="fill:#6700ff;fill-opacity:1;stroke:#000000;stroke-width:0.87704253;stroke-miterlimit:4;stroke-dasharray:none;stroke-dashoffset:0;stroke-opacity:1"
         inkscape:connector-curvature="0"
         id="path9558"
         d="m 466.29942,277.55435 c 0,0 -4.45915,-0.42988 -4.45915,-0.42988 0,0 2.04581,-11.10974 2.04581,-11.10974 0,0 4.72536,1.16569 4.72536,1.16569 0,0 0.33185,-1.79791 0.33185,-1.79791 0,0 -4.69901,-1.16283 -4.69901,-1.16283 0,0 -2.74102,-0.30677 -2.74102,-0.30677 0,0 -2.3759,12.93044 -2.3759,12.93044 0,0 -4.48772,-0.54445 -4.48772,-0.54445 0,0 -0.3038,1.65738 -0.3038,1.65738 0,0 11.65808,1.25378 11.65808,1.25378 0,0 0.3055,-1.65571 0.3055,-1.65571" />
      <path
         style="fill:#6700ff;fill-opacity:1;stroke:#000000;stroke-width:0.87704253;stroke-miterlimit:4;stroke-dasharray:none;stroke-dashoffset:0;stroke-opacity:1"
         inkscape:connector-curvature="0"
         id="path9560"
         d="m 445.24316,262.97059 c 1.43072,0.23849 2.4152,0.91965 2.95489,2.04279 0.53109,1.11378 0.61482,2.66363 0.2484,4.67256 -0.36502,2.00123 -0.99338,3.43518 -1.88835,4.32107 -0.90347,0.87847 -2.0738,1.22954 -3.4993,0.97476 -1.43723,-0.25688 -2.42439,-0.94619 -2.96001,-2.0686 -0.54427,-1.13192 -0.63561,-2.69729 -0.27336,-4.69599 0.36365,-2.00638 0.99919,-3.44153 1.90606,-4.30414 0.89832,-0.8703 2.06917,-1.1829 3.51167,-0.94245 0,0 0,0 0,0 m 0.28499,-1.56712 c -2.30753,-0.38698 -4.18462,-0.0669 -5.63479,1.00495 -1.45987,1.06483 -2.41132,2.81985 -2.85572,5.278 -0.4429,2.44986 -0.1699,4.44274 0.81736,5.97774 0.97738,1.52377 2.62201,2.4645 4.92087,2.87305 2.29222,0.40738 4.16622,0.0328 5.61797,-1.08563 1.44214,-1.12494 2.38669,-2.91274 2.83512,-5.36568 0.44995,-2.46122 0.19062,-4.42589 -0.7796,-5.89477 -0.98003,-1.47956 -2.62036,-2.40179 -4.92121,-2.78766 0,0 0,0 0,0" />
      <path
         style="fill:#6700ff;fill-opacity:1;stroke:#000000;stroke-width:0.87704253;stroke-miterlimit:4;stroke-dasharray:none;stroke-dashoffset:0;stroke-opacity:1"
         inkscape:connector-curvature="0"
         id="path9562"
         d="m 427.20879,259.26909 c 1.43935,0.36337 2.43935,1.106 2.98981,2.27708 0.54174,1.16103 0.63226,2.74344 0.27224,4.74737 -0.35865,1.99624 -0.9878,3.41401 -1.88804,4.25457 -0.90886,0.83252 -2.07663,1.0508 -3.51536,0.69893 -1.45059,-0.35476 -2.44387,-1.1388 -2.98592,-2.32327 -0.55076,-1.19489 -0.64946,-2.78824 -0.29543,-4.77984 0.3554,-1.99929 0.98145,-3.3782 1.8921,-4.19185 0.90199,-0.82199 2.07938,-1.04936 3.5306,-0.68299 0,0 0,0 0,0 m 0.27934,-1.56252 c -2.32151,-0.58847 -4.21153,-0.39468 -5.66041,0.561 -1.45866,0.94772 -2.40672,2.6519 -2.84267,5.11036 -0.43447,2.45017 -0.15067,4.48726 0.84973,6.11027 0.99038,1.6109 2.6342,2.75 4.95445,3.31508 2.31347,0.56343 4.19727,0.33682 5.65501,-0.67705 1.44802,-1.02123 2.39043,-2.74856 2.83301,-5.20449 0.44409,-2.46424 0.17105,-4.46142 -0.81332,-6.0277 -0.99432,-1.57792 -2.66108,-2.60072 -4.9758,-3.18747 0,0 0,0 0,0" />
      <path
         style="fill:#6700ff;fill-opacity:1;stroke:#000000;stroke-width:0.87704253;stroke-miterlimit:4;stroke-dasharray:none;stroke-dashoffset:0;stroke-opacity:1"
         inkscape:connector-curvature="0"
         id="path9564"
         d="m 412.60418,267.29913 c 0,0 -4.53454,-1.55208 -4.53454,-1.55208 0,0 1.91588,-11.02557 1.91588,-11.02557 0,0 4.83486,2.35554 4.83486,2.35554 0,0 0.31615,-1.79564 0.31615,-1.79564 0,0 -4.81321,-2.33515 -4.81321,-2.33515 0,0 -2.77618,-1.01974 -2.77618,-1.01974 0,0 -2.2136,12.80568 -2.2136,12.80568 0,0 -4.47708,-1.83222 -4.47708,-1.83222 0,0 -0.27742,1.632 -0.27742,1.632 0,0 11.73657,4.41283 11.73657,4.41283 0,0 0.28857,-1.64565 0.28857,-1.64565" />
      <path
         style="fill:#6700ff;fill-opacity:1;stroke:#000000;stroke-width:0.87704253;stroke-miterlimit:4;stroke-dasharray:none;stroke-dashoffset:0;stroke-opacity:1"
         inkscape:connector-curvature="0"
         id="path9566"
         d="m 391.57775,245.95665 c 1.34849,0.77882 2.30289,1.81853 2.84263,3.15525 0.53124,1.32425 0.63214,2.9722 0.30334,4.94416 -0.32753,1.96437 -0.91276,3.25401 -1.7552,3.86811 -0.85067,0.60344 -1.95825,0.53732 -3.28381,-0.26699 -1.33656,-0.81098 -2.24626,-1.92643 -2.74787,-3.31442 -0.50962,-1.40146 -0.61225,-3.07142 -0.30729,-5.00945 0.30615,-1.94552 0.85322,-3.16294 1.68371,-3.71954 0.82244,-0.56785 1.90481,-0.4424 3.26449,0.34288 0,0 0,0 0,0 m 0.24789,-1.52798 c -2.17512,-1.25874 -3.8994,-1.65741 -5.20649,-1.12772 -1.31606,0.51845 -2.11466,1.90444 -2.47326,4.27307 -0.35739,2.3606 -0.11262,4.58657 0.78906,6.59825 0.89266,1.99572 2.36912,3.705 4.50696,4.99969 2.13145,1.29081 3.9139,1.55969 5.30718,0.87076 1.38382,-0.69884 2.27624,-2.2509 2.6787,-4.65816 0.40383,-2.41543 0.12634,-4.54637 -0.83413,-6.39417 -0.97018,-1.86227 -2.59941,-3.30674 -4.76802,-4.56172 0,0 0,0 0,0" />
      <path
         style="fill:#6700ff;fill-opacity:1;stroke:#000000;stroke-width:0.87704253;stroke-miterlimit:4;stroke-dasharray:none;stroke-dashoffset:0;stroke-opacity:1"
         inkscape:connector-curvature="0"
         id="path9568"
         d="m 376.24687,233.63213 c 0.99153,1.25212 1.76022,2.59541 2.19168,4.12672 0.42469,1.51589 0.51007,3.22157 0.25667,5.11757 -0.25243,1.88868 -0.72408,3.02849 -1.36789,3.37654 -0.65015,0.33455 -1.4557,-0.12967 -2.38057,-1.41894 -0.93255,-1.29999 -1.42453,-2.84139 -1.69167,-4.47276 -0.2714,-1.64862 -0.32899,-3.39088 -0.17246,-5.22609 0.15715,-1.84232 0.46942,-2.86486 0.95117,-3.07425 0.47704,-0.22426 1.21329,0.30868 2.21307,1.57121 0,0 0,0 0,0 m 0.17719,-1.46712 c -1.5994,-2.0223 -2.67228,-3.12753 -3.35967,-3.1649 -0.69214,-0.0528 -0.98477,0.99122 -1.12393,3.23609 -0.13869,2.23723 -0.031,4.59468 0.32244,7.06988 0.34991,2.45461 1.15154,4.81951 2.52603,6.97542 1.37034,2.14941 2.8469,2.93106 3.94661,2.68104 1.09219,-0.26311 1.8708,-1.63087 2.20694,-3.97231 0.33728,-2.34942 0.0647,-4.55274 -0.73497,-6.7045 -0.80777,-2.16928 -2.1889,-4.10455 -3.78345,-6.12072 0,0 0,0 0,0" />
      <path
         style="fill:#6700ff;fill-opacity:1;stroke:#000000;stroke-width:0.87704253;stroke-miterlimit:4;stroke-dasharray:none;stroke-dashoffset:0;stroke-opacity:1"
         inkscape:connector-curvature="0"
         id="path9570"
         d="m 371.17945,231.34003 c 0,0 1.11431,-5.00057 1.11431,-5.00057 0,0 -0.58731,-10.21657 -0.58731,-10.21657 0,0 -0.57502,6.21822 -0.57502,6.21822 0,0 0.0126,-1.63227 0.0126,-1.63227 0,0 0.47896,-6.20365 0.47896,-6.20365 0,0 0.95525,-3.0376 0.95525,-3.0376 0,0 0.97368,12.00923 0.97368,12.00923 0,0 2.78264,-4.37246 2.78264,-4.37246 0,0 0.18575,1.58293 0.18575,1.58293 0,0 -5.31054,12.15697 -5.31054,12.15697 0,0 -0.0303,-1.50423 -0.0303,-1.50423" />
      <path
         style="fill:#6700ff;fill-opacity:1;stroke:#000000;stroke-width:0.87704253;stroke-miterlimit:4;stroke-dasharray:none;stroke-dashoffset:0;stroke-opacity:1"
         inkscape:connector-curvature="0"
         id="path9572"
         d="m 384.29746,198.30473 c -1.29667,1.05821 -2.16913,2.39024 -2.65579,3.9503 -0.47907,1.54441 -0.58578,3.29919 -0.32071,5.2649 0.26404,1.95809 0.76822,3.1476 1.53333,3.5925 0.7728,0.43183 1.81636,0.13779 3.14259,-0.86818 1.33732,-1.01438 2.31411,-2.20921 2.86421,-3.67205 0.55881,-1.47719 0.68919,-3.22458 0.39047,-5.24169 -0.29988,-2.02497 -0.88768,-3.31802 -1.72287,-3.81955 -0.82687,-0.51406 -1.92371,-0.27329 -3.23123,0.79377 0,0 0,0 0,0 m -0.21843,-1.5535 c 2.09175,-1.70977 3.88077,-2.2441 5.26111,-1.72421 1.39007,0.50794 2.27292,2.01336 2.65181,4.522 0.37759,2.50007 0.0328,4.74866 -0.97045,6.84361 -0.99316,2.0782 -2.66295,3.78516 -4.80201,5.40501 -2.13245,1.61484 -3.7786,2.30044 -4.9881,1.99472 -1.20108,-0.31888 -1.90643,-1.61799 -2.20849,-3.99433 -0.3031,-2.38448 -0.077,-4.73718 0.75454,-6.98715 0.83997,-2.26846 2.21632,-4.35519 4.30159,-6.05965 0,0 0,0 0,0" />
      <path
         style="fill:#6700ff;fill-opacity:1;stroke:#000000;stroke-width:0.87704253;stroke-miterlimit:4;stroke-dasharray:none;stroke-dashoffset:0;stroke-opacity:1"
         inkscape:connector-curvature="0"
         id="path9574"
         d="m 402.3624,187.21402 c -1.53691,0.75558 -2.621,1.82757 -3.22346,3.27553 -0.59309,1.43415 -0.73146,3.18496 -0.41585,5.25283 0.31438,2.05984 0.93199,3.41913 1.85775,4.08766 0.93514,0.65748 2.15472,0.58339 3.71683,-0.10173 1.5752,-0.69085 2.67514,-1.73008 3.29809,-3.11799 0.63278,-1.40097 0.78695,-3.15064 0.46171,-5.24864 -0.3265,-2.10618 -0.96937,-3.50592 -1.92795,-4.19786 -0.94895,-0.7028 -2.21733,-0.71171 -3.76712,0.0502 0,0 0,0 0,0 m -0.25103,-1.62955 c 2.47938,-1.22167 4.53084,-1.36888 6.07459,-0.60122 1.55474,0.75725 2.56875,2.51719 2.9748,5.12141 0.40466,2.59528 0.0311,4.84933 -1.11871,6.76069 -1.13824,1.89647 -2.9706,3.39243 -5.49017,4.49474 -2.51168,1.09886 -4.48765,1.36678 -5.96629,0.72122 -1.46824,-0.65657 -2.39479,-2.24577 -2.78124,-4.7697 -0.38777,-2.53259 -0.0516,-4.80521 1.01045,-6.81946 1.0728,-2.03034 2.82498,-3.68984 5.29657,-4.90768 0,0 0,0 0,0" />
      <path
         style="fill:#6700ff;fill-opacity:1;stroke:#000000;stroke-width:0.87704253;stroke-miterlimit:4;stroke-dasharray:none;stroke-dashoffset:0;stroke-opacity:1"
         inkscape:connector-curvature="0"
         id="path9576"
         d="m 422.56039,179.19059 c -1.66197,0.56022 -2.82719,1.5212 -3.49746,2.88241 -0.65987,1.34886 -0.8207,3.09955 -0.48328,5.25235 0.33611,2.14442 1.00163,3.6169 1.99722,4.41888 1.00577,0.79202 2.33115,0.89348 4.0066,0.39381 1.68954,-0.50387 2.87207,-1.42024 3.54576,-2.74967 0.68427,-1.34146 0.85791,-3.09619 0.52007,-5.26391 -0.33916,-2.17619 -1.02046,-3.67558 -2.04321,-4.49668 -1.01237,-0.83091 -2.36975,-1.00212 -4.0457,-0.43719 0,0 0,0 0,0 m -0.26294,-1.68605 c 2.68124,-0.90662 4.87197,-0.80211 6.52079,0.16874 1.66066,0.96167 2.71609,2.83927 3.13501,5.52687 0.41748,2.67835 0.009,4.91979 -1.22336,6.72306 -1.21993,1.78947 -3.17986,3.09774 -5.88231,3.90089 -2.69388,0.8006 -4.82539,0.82136 -6.45002,-0.0959 -1.6131,-0.92658 -2.5997,-2.62843 -3.00865,-5.24393 -0.41037,-2.6245 -0.0332,-4.88036 1.13361,-6.76897 1.17864,-1.90341 3.10221,-3.307 5.77493,-4.21074 0,0 0,0 0,0" />
      <path
         style="fill:#6700ff;fill-opacity:1;stroke:#000000;stroke-width:0.87704253;stroke-miterlimit:4;stroke-dasharray:none;stroke-dashoffset:0;stroke-opacity:1"
         inkscape:connector-curvature="0"
         id="path9578"
         d="m 439.37559,187.69586 c 0,0 5.5219,-1.27922 5.5219,-1.27922 0,0 -1.90857,-12.33343 -1.90857,-12.33343 0,0 -5.87692,2.26585 -5.87692,2.26585 0,0 -0.30773,-1.98072 -0.30773,-1.98072 0,0 5.84401,-2.26521 5.84401,-2.26521 0,0 3.41159,-0.76613 3.41159,-0.76613 0,0 2.21479,14.35971 2.21479,14.35971 0,0 5.61593,-1.11865 5.61593,-1.11865 0,0 0.28473,1.85411 0.28473,1.85411 0,0 -14.51658,3.08703 -14.51658,3.08703 0,0 -0.28315,-1.82334 -0.28315,-1.82334" />
      <path
         style="fill:#6700ff;fill-opacity:1;stroke:#000000;stroke-width:0.87704253;stroke-miterlimit:4;stroke-dasharray:none;stroke-dashoffset:0;stroke-opacity:1"
         inkscape:connector-curvature="0"
         id="path9580"
         d="m 466.44526,168.9248 c -1.81613,0.30862 -3.09533,1.10861 -3.8396,2.39912 -0.73279,1.27945 -0.92626,3.05171 -0.58131,5.31694 0.3436,2.25638 1.05299,3.87557 2.12888,4.85919 1.08711,0.97505 2.53534,1.3058 4.35619,1.05267 1.83625,-0.25527 3.12748,-1.0128 3.87163,-2.27345 0.75579,-1.27142 0.96253,-3.04649 0.61927,-5.32503 -0.34459,-2.28749 -1.06717,-3.93296 -2.16697,-4.93476 -1.08843,-1.01024 -2.55659,-1.4059 -4.38809,-1.09468 0,0 0,0 0,0 m -0.26871,-1.77411 c 2.93017,-0.5009 5.29822,-0.0483 7.07506,1.20433 1.78982,1.24507 2.89882,3.2907 3.32232,6.11317 0.42204,2.8127 -0.0456,5.02963 -1.39061,6.72522 -1.3315,1.6829 -3.46834,2.72618 -6.40547,3.13155 -2.92758,0.40404 -5.25911,0.0655 -7.01881,-1.13765 -1.747,-1.21078 -2.83073,-3.1969 -3.25148,-5.95183 -0.42221,-2.76447 0.0127,-5.02901 1.31585,-6.74364 1.31647,-1.72765 3.43251,-2.84188 6.35314,-3.34115 0,0 0,0 0,0" />
      <path
         style="fill:#6700ff;fill-opacity:1;stroke:#000000;stroke-width:0.87704253;stroke-miterlimit:4;stroke-dasharray:none;stroke-dashoffset:0;stroke-opacity:1"
         inkscape:connector-curvature="0"
         id="path9582"
         d="m 484.50834,180.09506 c 0,0 5.93583,-0.5722 5.93583,-0.5722 0,0 -1.90715,-12.88453 -1.90715,-12.88453 0,0 -6.33604,1.51677 -6.33604,1.51677 0,0 -0.30885,-2.0715 -0.30885,-2.0715 0,0 6.30001,-1.52742 6.30001,-1.52742 0,0 3.65586,-0.38273 3.65586,-0.38273 0,0 2.2153,15.03363 2.2153,15.03363 0,0 6.00854,-0.45875 6.00854,-0.45875 0,0 0.28333,1.93491 0.28333,1.93491 0,0 -15.56207,1.32441 -15.56207,1.32441 0,0 -0.28476,-1.91259 -0.28476,-1.91259" />
      <path
         style="fill:#6700ff;fill-opacity:1;stroke:#000000;stroke-width:0.87704253;stroke-miterlimit:4;stroke-dasharray:none;stroke-dashoffset:0;stroke-opacity:1"
         inkscape:connector-curvature="0"
         id="path9584"
         d="m 513.60927,164.18995 c -1.93579,0.0885 -3.30612,0.73722 -4.1113,1.98341 -0.79284,1.23602 -1.01775,3.03503 -0.6757,5.39711 0.3407,2.35281 1.07732,4.09443 2.21126,5.23939 1.14598,1.13759 2.68475,1.66993 4.61873,1.5963 1.95043,-0.0743 3.32866,-0.70883 4.13225,-1.91217 0.81608,-1.21302 1.05495,-3.00973 0.71559,-5.39006 -0.3407,-2.38972 -1.09018,-4.18521 -2.24589,-5.32595 -1.14353,-1.14824 -2.69267,-1.67733 -4.64494,-1.58803 0,0 0,0 0,0 m -0.26658,-1.85504 c 3.12348,-0.146 5.62417,0.52449 7.49642,2.02595 1.88618,1.49533 3.03906,3.7142 3.45648,6.65324 0.41596,2.92882 -0.10053,5.182 -1.54683,6.75877 -1.43169,1.56529 -3.71137,2.36412 -6.83115,2.4798 -3.10937,0.11529 -5.59118,-0.56826 -7.44848,-1.98988 -1.84366,-1.42808 -2.97398,-3.58209 -3.39305,-6.46524 -0.42052,-2.89319 0.0698,-5.15055 1.47357,-6.77294 1.41806,-1.63443 3.67999,-2.54418 6.79304,-2.6897 0,0 0,0 0,0" />
      <path
         style="fill:#6700ff;fill-opacity:1;stroke:#000000;stroke-width:0.87704253;stroke-miterlimit:4;stroke-dasharray:none;stroke-dashoffset:0;stroke-opacity:1"
         inkscape:connector-curvature="0"
         id="path9586"
         d="m 532.63512,177.66134 c 0,0 6.28116,0.04 6.28116,0.04 0,0 -1.87367,-13.44204 -1.87367,-13.44204 0,0 -6.71854,0.88883 -6.71854,0.88883 0,0 -0.30432,-2.16259 -0.30432,-2.16259 0,0 6.68128,-0.90283 6.68128,-0.90283 0,0 3.86928,0.0275 3.86928,0.0275 0,0 2.17291,15.64991 2.17291,15.64991 0,0 6.34664,0.17608 6.34664,0.17608 0,0 0.27751,2.01743 0.27751,2.01743 0,0 -16.45232,-0.30194 -16.45232,-0.30194 0,0 -0.27993,-1.99033 -0.27993,-1.99033" />
      <path
         style="fill:#6700ff;fill-opacity:1;stroke:#000000;stroke-width:0.87704253;stroke-miterlimit:4;stroke-dasharray:none;stroke-dashoffset:0;stroke-opacity:1"
         inkscape:connector-curvature="0"
         id="path9588"
         d="m 563.51676,164.40164 c -2.03776,-0.12242 -3.48818,0.43752 -4.35062,1.62686 -0.84937,1.18021 -1.10649,3.00127 -0.77243,5.46316 0.33275,2.45219 1.0894,4.31694 2.27075,5.59621 1.19406,1.27284 2.80709,1.98728 4.8427,2.1252 2.05303,0.13911 3.51017,-0.37112 4.36902,-1.53214 0.87204,-1.16985 1.14287,-2.98338 0.81304,-5.46265 -0.33113,-2.48909 -1.09926,-4.37734 -2.3026,-5.67528 -1.19049,-1.30427 -2.81467,-2.01789 -4.86986,-2.14136 0,0 0,0 0,0 m -0.25974,-1.93282 c 3.2883,0.19425 5.91389,1.12265 7.86406,2.86862 1.96491,1.74128 3.15129,4.14444 3.55684,7.20569 0.40413,3.05053 -0.16386,5.30533 -1.70106,6.76388 -1.52168,1.44829 -3.92725,2.05554 -7.21118,1.82977 -3.27264,-0.225 -5.8775,-1.15199 -7.81881,-2.81751 -1.92675,-1.67058 -3.09373,-4.00653 -3.50315,-7.01145 -0.41085,-3.01547 0.13096,-5.27727 1.62824,-6.78601 1.51261,-1.51959 3.9081,-2.24657 7.18506,-2.05299 0,0 0,0 0,0" />
      <path
         style="fill:#6700ff;fill-opacity:1;stroke:#000000;stroke-width:0.87704253;stroke-miterlimit:4;stroke-dasharray:none;stroke-dashoffset:0;stroke-opacity:1"
         inkscape:connector-curvature="0"
         id="path9590"
         d="m 583.35919,180.2539 c 0,0 6.58619,0.72108 6.58619,0.72108 0,0 -1.81111,-13.99588 -1.81111,-13.99588 0,0 -7.05876,0.18363 -7.05876,0.18363 0,0 -0.29493,-2.25213 -0.29493,-2.25213 0,0 7.02036,-0.20214 7.02036,-0.20214 0,0 4.0534,0.45653 4.0534,0.45653 0,0 2.09957,16.29477 2.09957,16.29477 0,0 6.63943,0.89134 6.63943,0.89134 0,0 0.26742,2.10028 0.26742,2.10028 0,0 -17.23033,-2.12498 -17.23033,-2.12498 0,0 -0.27124,-2.0725 -0.27124,-2.0725" />
      <path
         style="fill:#6700ff;fill-opacity:1;stroke:#000000;stroke-width:0.87704253;stroke-miterlimit:4;stroke-dasharray:none;stroke-dashoffset:0;stroke-opacity:1"
         inkscape:connector-curvature="0"
         id="path9592"
         d="m 615.80824,170.172 c -2.12266,-0.36366 -3.63818,0.006 -4.55244,1.12749 -0.90048,1.11353 -1.18969,2.95195 -0.86877,5.5151 0.31966,2.553 1.09075,4.53964 2.30598,6.01044 1.22856,1.46594 2.90154,2.38888 5.02173,2.76862 2.13845,0.38301 3.65798,0.0582 4.56305,-1.01348 0.91892,-1.07892 1.22151,-2.90916 0.90659,-5.49093 -0.31616,-2.59205 -1.09218,-4.63768 -2.32717,-6.13464 -1.22157,-1.50165 -2.90803,-2.4158 -5.04897,-2.7826 0,0 0,0 0,0 m -0.24881,-2.01258 c 3.42562,0.58341 6.14361,1.90138 8.15228,3.92633 2.02414,2.02199 3.23094,4.62904 3.61799,7.81689 0.38568,3.17661 -0.2308,5.42011 -1.84637,6.73031 -1.5992,1.30148 -4.10041,1.57964 -7.52099,0.96354 -3.40848,-0.61393 -6.11106,-1.90069 -8.11948,-3.83076 -1.99308,-1.93352 -3.1852,-4.4625 -3.57867,-7.59098 -0.39486,-3.13952 0.19656,-5.39738 1.77726,-6.77389 1.59694,-1.38598 4.1045,-1.82278 7.51798,-1.24144 0,0 0,0 0,0" />
      <path
         style="fill:#6700ff;fill-opacity:1;stroke:#000000;stroke-width:0.87704253;stroke-miterlimit:4;stroke-dasharray:none;stroke-dashoffset:0;stroke-opacity:1"
         inkscape:connector-curvature="0"
         id="path9594"
         d="m 642.63039,175.74753 c -2.13976,-0.56348 -3.69339,-0.2413 -4.62472,0.81429 -0.91718,1.04879 -1.22,2.885 -0.90964,5.50835 0.30912,2.61294 1.07592,4.70419 2.30125,6.27606 1.23904,1.56791 2.93374,2.61052 5.07088,3.19028 2.15561,0.58476 3.69612,0.36824 4.61893,-0.65167 0.93703,-1.02627 1.24897,-2.84039 0.94656,-5.48469 -0.30363,-2.65486 -1.07792,-4.78354 -2.32079,-6.38791 -1.22908,-1.6081 -2.92422,-2.69636 -5.08247,-3.26471 0,0 0,0 0,0 m -0.24097,-2.05625 c 3.47453,0.82351 6.20424,2.42449 8.2134,4.67017 2.02485,2.24425 3.22429,5.00119 3.59588,8.26621 0.37028,3.25346 -0.26234,5.46452 -1.89471,6.63328 -1.61574,1.16152 -4.1492,1.26494 -7.59716,0.32603 -3.43575,-0.93557 -6.17915,-2.39638 -8.20015,-4.52634 -2.00558,-2.13211 -3.2077,-4.75327 -3.59029,-7.94671 -0.38396,-3.20475 0.23017,-5.45289 1.84547,-6.74454 1.63178,-1.30027 4.16538,-1.49868 7.62756,-0.6781 0,0 0,0 0,0" />
      <path
         style="fill:#6700ff;fill-opacity:1;stroke:#000000;stroke-width:0.87704253;stroke-miterlimit:4;stroke-dasharray:none;stroke-dashoffset:0;stroke-opacity:1"
         inkscape:connector-curvature="0"
         id="path9596"
         d="m 663.09759,196.66757 c 0,0 6.76357,2.46187 6.76357,2.46187 0,0 -1.62461,-14.9652 -1.62461,-14.9652 0,0 -7.28845,-1.60198 -7.28845,-1.60198 0,0 -0.26806,-2.40383 -0.26806,-2.40383 0,0 7.25134,1.57045 7.25134,1.57045 0,0 4.14021,1.55848 4.14021,1.55848 0,0 1.86573,17.46547 1.86573,17.46547 0,0 6.68652,2.87991 6.68652,2.87991 0,0 0.23439,2.25376 0.23439,2.25376 0,0 -17.51668,-6.99999 -17.51668,-6.99999 0,0 -0.24396,-2.21894 -0.24396,-2.21894" />
      <path
         style="fill:#6700ff;fill-opacity:1;stroke:#000000;stroke-width:0.87704253;stroke-miterlimit:4;stroke-dasharray:none;stroke-dashoffset:0;stroke-opacity:1"
         inkscape:connector-curvature="0"
         id="path9598"
         d="m 695.63344,196.40691 c -1.97835,-1.24395 -3.45867,-1.38615 -4.3567,-0.56953 -0.88445,0.81365 -1.19205,2.60611 -0.92396,5.37675 0.26703,2.75958 0.99295,5.08457 2.12557,7.0691 1.14554,1.98475 2.72307,3.57714 4.69876,4.83736 1.99289,1.27119 3.36573,1.61875 4.19575,0.91755 0.84275,-0.70247 1.14221,-2.4564 0.89726,-5.26255 -0.24593,-2.81741 -0.89099,-5.30875 -2.00486,-7.37118 -1.10126,-2.0615 -2.63623,-3.74271 -4.63182,-4.9975 0,0 0,0 0,0 m -0.20147,-2.18142 c 3.19314,2.004 5.68126,4.51093 7.41307,7.56003 1.74558,3.05366 2.74564,6.34578 3.03024,9.83094 0.28357,3.47274 -0.25219,5.44694 -1.68777,6.0265 -1.4209,0.57838 -3.62225,-0.31489 -6.80994,-2.35197 -3.17608,-2.02965 -5.75692,-4.34514 -7.65916,-7.09448 -1.88745,-2.74707 -3.03009,-5.74425 -3.36931,-9.10663 -0.34043,-3.37437 0.28071,-5.51761 1.84551,-6.38755 1.58083,-0.87419 4.05589,-0.47351 7.23736,1.52316 0,0 0,0 0,0" />
      <path
         style="fill:#6700ff;fill-opacity:1;stroke:#000000;stroke-width:0.87704253;stroke-miterlimit:4;stroke-dasharray:none;stroke-dashoffset:0;stroke-opacity:1"
         inkscape:connector-curvature="0"
         id="path9600"
         d="m 712.86228,225.87468 c 0,0 4.42984,6.18927 4.42984,6.18927 0,0 -0.85892,-16.19951 -0.85892,-16.19951 0,0 -5.05724,-5.4421 -5.05724,-5.4421 0,0 -0.18376,-2.58163 -0.18376,-2.58163 0,0 5.06621,5.36862 5.06621,5.36862 0,0 2.30961,4.0509 2.30961,4.0509 0,0 0.78033,18.96642 0.78033,18.96642 0,0 1.92635,7.44302 1.92635,7.44302 0,0 0.0223,2.45724 0.0223,2.45724 0,0 -8.27446,-17.86967 -8.27446,-17.86967 0,0 -0.16025,-2.38256 -0.16025,-2.38256" />
      <path
         style="fill:#6700ff;fill-opacity:1;stroke:#000000;stroke-width:0.87704253;stroke-miterlimit:4;stroke-dasharray:none;stroke-dashoffset:0;stroke-opacity:1"
         inkscape:connector-curvature="0"
         id="path9602"
         d="m 717.44729,245.50536 c 1.16457,-2.17915 1.8378,-3.15644 2.24252,-2.82742 0.39861,0.33356 0.46859,1.95916 0.37821,4.93547 -0.09,2.96437 -0.35374,5.77315 -0.8586,8.40559 -0.51074,2.63972 -1.36358,5.05721 -2.63995,7.18811 -1.28758,2.1496 -2.39029,2.91799 -3.08579,2.43184 -0.70613,-0.48396 -0.96885,-2.19022 -0.78721,-5.1199 0.18237,-2.9415 0.73242,-5.6229 1.57183,-8.10114 0.82972,-2.47299 2.0042,-4.71426 3.17899,-6.91255 0,0 0,0 0,0 m 0.10667,-2.31502 c -1.87986,3.51359 -3.86948,6.8736 -5.39724,10.35014 -1.54013,3.48426 -2.47046,6.9946 -2.7149,10.59249 -0.24356,3.58496 0.34981,5.58259 1.64189,5.87052 1.27881,0.28979 3.30976,-1.05688 5.36929,-4.49924 2.0518,-3.42944 3.17474,-7.24652 3.88045,-11.15623 0.70013,-3.89859 0.79305,-7.74582 0.83509,-11.39468 0.0422,-3.66196 0.0427,-5.40565 -0.42609,-5.31577 -0.47366,0.0955 -1.31571,2.0524 -3.18849,5.55277 0,0 0,0 0,0" />
      <path
         style="fill:#6700ff;fill-opacity:1;stroke:#000000;stroke-width:0.87704253;stroke-miterlimit:4;stroke-dasharray:none;stroke-dashoffset:0;stroke-opacity:1"
         inkscape:connector-curvature="0"
         id="path9604"
         d="m 701.75776,278.60191 c 0,0 -6.55814,4.72166 -6.55814,4.72166 0,0 1.30962,-16.09591 1.30962,-16.09591 0,0 6.96169,-4.19539 6.96169,-4.19539 0,0 0.19593,-2.62064 0.19593,-2.62064 0,0 -6.90618,4.18009 -6.90618,4.18009 0,0 -4.1711,2.6904 -4.1711,2.6904 0,0 -1.54909,18.68533 -1.54909,18.68533 0,0 -7.11264,4.04187 -7.11264,4.04187 0,0 -0.2038,2.39009 -0.2038,2.39009 0,0 17.84898,-11.39268 17.84898,-11.39268 0,0 0.18473,-2.40482 0.18473,-2.40482" />
      <path
         style="fill:#6700ff;fill-opacity:1;stroke:#000000;stroke-width:0.87704253;stroke-miterlimit:4;stroke-dasharray:none;stroke-dashoffset:0;stroke-opacity:1"
         inkscape:connector-curvature="0"
         id="path9606"
         d="m 666.19698,282.04425 c 2.4406,-0.98705 4.21746,-0.99062 5.30411,-0.0819 1.07032,0.90468 1.47863,2.80407 1.22636,5.69753 -0.25126,2.88178 -1.02327,5.34462 -2.36364,7.28364 -1.35626,1.93768 -3.25093,3.40904 -5.68759,4.41469 -2.45822,1.01455 -4.28473,0.94141 -5.39957,-0.0269 -1.1318,-0.97332 -1.57128,-2.90135 -1.31688,-5.78461 0.25542,-2.89496 1.07766,-5.29547 2.46568,-7.1986 1.37171,-1.90507 3.30931,-3.30797 5.77153,-4.30377 0,0 0,0 0,0 m 0.19851,-2.26011 c -3.94009,1.58923 -7.09778,3.59456 -9.37415,6.24328 -2.29517,2.64932 -3.63589,5.6571 -3.95118,9.20827 -0.31414,3.53832 0.52366,5.87333 2.50932,7.00544 1.96518,1.12535 4.96726,0.99209 8.89929,-0.63496 3.91682,-1.62075 6.97515,-3.80263 9.16917,-6.58104 2.17632,-2.7766 3.42249,-5.91855 3.72693,-9.46152 0.30555,-3.5558 -0.45664,-5.79379 -2.30968,-6.75375 -1.87217,-0.96505 -4.74488,-0.60879 -8.6697,0.97428 0,0 0,0 0,0" />
      <path
         style="fill:#6700ff;fill-opacity:1;stroke:#000000;stroke-width:0.87704253;stroke-miterlimit:4;stroke-dasharray:none;stroke-dashoffset:0;stroke-opacity:1"
         inkscape:connector-curvature="0"
         id="path9608"
         d="m 634.28203,292.40099 c 2.62191,-0.71146 4.52804,-0.52034 5.72176,0.57068 1.176,1.08435 1.62886,3.05542 1.37284,5.95604 -0.25498,2.88887 -1.09737,5.23609 -2.52867,7.04296 -1.44825,1.80362 -3.47917,3.07086 -6.09664,3.80193 -2.64072,0.73756 -4.58803,0.45793 -5.7872,-0.6479 -1.21722,-1.11284 -1.69952,-3.11663 -1.44525,-6.01175 0.25532,-2.90691 1.12028,-5.24934 2.59379,-7.02441 1.4562,-1.77888 3.52416,-2.96977 6.16937,-3.68755 0,0 0,0 0,0 m 0.19983,-2.26774 c -4.23312,1.14426 -7.5946,2.81882 -10.01435,5.25097 -2.43983,2.4307 -3.83591,5.35743 -4.14934,8.9253 -0.31229,3.55489 0.59453,6.01194 2.71603,7.37111 2.09966,1.35008 5.29433,1.53152 9.51839,0.34737 4.2073,-1.17946 7.50435,-2.98103 9.86744,-5.51903 2.34367,-2.53831 3.67143,-5.57446 3.98624,-9.114 0.31596,-3.55241 -0.53189,-5.93272 -2.54769,-7.14065 -2.03684,-1.21551 -5.16045,-1.26078 -9.37672,-0.12107 0,0 0,0 0,0" />
      <path
         style="fill:#6700ff;fill-opacity:1;stroke:#000000;stroke-width:0.87704253;stroke-miterlimit:4;stroke-dasharray:none;stroke-dashoffset:0;stroke-opacity:1"
         inkscape:connector-curvature="0"
         id="path9610"
         d="m 600.41926,299.70536 c 2.76659,-0.45949 4.76893,-0.14758 6.03199,1.0486 1.24416,1.18809 1.73883,3.24027 1.48572,6.15622 -0.25209,2.90411 -1.12477,5.2176 -2.61911,6.94332 -1.51242,1.7212 -3.64337,2.84359 -6.40508,3.32374 -2.78635,0.48443 -4.81424,0.12294 -6.07998,-1.08689 -1.28496,-1.21825 -1.80418,-3.28667 -1.5559,-6.20551 0.2493,-2.93076 1.14225,-5.24409 2.6777,-6.93708 1.51704,-1.69808 3.67337,-2.77882 6.46466,-3.2424 0,0 0,0 0,0 m 0.19667,-2.28093 c -4.46689,0.73734 -7.96191,2.28761 -10.49563,4.52063 -2.55504,2.22965 -3.98678,5.1465 -4.29188,8.7451 -0.30399,3.58545 0.66151,6.14296 2.89178,7.67215 2.20716,1.51838 5.5401,1.86262 9.997,1.08325 4.43913,-0.77626 7.88443,-2.40684 10.37468,-4.73783 2.46977,-2.33329 3.85938,-5.27341 4.16917,-8.83907 0.31092,-3.57869 -0.60075,-6.06765 -2.7466,-7.50082 -2.16813,-1.44312 -5.4495,-1.6778 -9.89852,-0.94341 0,0 0,0 0,0" />
      <path
         style="fill:#6700ff;fill-opacity:1;stroke:#000000;stroke-width:0.87704253;stroke-miterlimit:4;stroke-dasharray:none;stroke-dashoffset:0;stroke-opacity:1"
         inkscape:connector-curvature="0"
         id="path9612"
         d="m 574.50264,320.37093 c 0,0 -9.07183,1.10436 -9.07183,1.10436 0,0 1.35238,-16.33584 1.35238,-16.33584 0,0 9.79192,-0.13328 9.79192,-0.13328 0,0 0.22118,-2.63869 0.22118,-2.63869 0,0 -9.73874,0.12044 -9.73874,0.12044 0,0 -5.60933,0.55577 -5.60933,0.55577 0,0 -1.56037,19.02679 -1.56037,19.02679 0,0 -9.21684,0.86822 -9.21684,0.86822 0,0 -0.1979,2.44305 -0.1979,2.44305 0,0 23.82641,-2.58429 23.82641,-2.58429 0,0 0.20312,-2.42653 0.20312,-2.42653" />
      <path
         style="fill:#6700ff;fill-opacity:1;stroke:#000000;stroke-width:0.87704253;stroke-miterlimit:4;stroke-dasharray:none;stroke-dashoffset:0;stroke-opacity:1"
         inkscape:connector-curvature="0"
         id="path9614"
         d="m 528.13988,307.27723 c 2.98895,-0.12488 5.17637,0.52533 6.56486,1.92478 1.36777,1.38855 1.933,3.57002 1.6976,6.5443 -0.23444,2.96213 -1.15104,5.23383 -2.75098,6.81799 -1.61968,1.57719 -3.92098,2.40187 -6.90418,2.5494 -3.01007,0.14886 -5.21062,-0.47742 -6.59872,-1.91035 -1.40911,-1.44451 -2.00013,-3.65492 -1.77106,-6.63124 0.23001,-2.98856 1.16601,-5.24601 2.80677,-6.76941 1.62069,-1.53129 3.93982,-2.39945 6.95571,-2.52547 0,0 0,0 0,0 m 0.18183,-2.32873 c -4.82652,0.19683 -8.59819,1.28579 -11.30273,3.2814 -2.72775,1.98964 -4.23341,4.8258 -4.51337,8.5031 -0.27892,3.66375 0.79854,6.42109 3.22713,8.27106 2.40329,1.83582 6.01887,2.66799 10.83364,2.42509 4.79495,-0.2419 8.52284,-1.41196 11.19629,-3.48999 2.65103,-2.08296 4.11988,-4.93591 4.40999,-8.56419 0.29118,-3.64165 -0.73589,-6.34185 -3.08624,-8.10136 -2.37487,-1.77284 -5.95812,-2.52112 -10.76471,-2.32511 0,0 0,0 0,0" />
      <path
         style="fill:#6700ff;fill-opacity:1;stroke:#000000;stroke-width:0.87704253;stroke-miterlimit:4;stroke-dasharray:none;stroke-dashoffset:0;stroke-opacity:1"
         inkscape:connector-curvature="0"
         id="path9616"
         d="m 500.42471,325.30116 c 0,0 -9.74682,0.006 -9.74682,0.006 0,0 1.22621,-16.71795 1.22621,-16.71795 0,0 10.54009,1.09239 10.54009,1.09239 0,0 0.20174,-2.69865 0.20174,-2.69865 0,0 -10.48384,-1.10117 -10.48384,-1.10117 0,0 -6.01913,-0.0762 -6.01913,-0.0762 0,0 -1.4117,19.45755 -1.4117,19.45755 0,0 -9.87574,-0.21496 -9.87574,-0.21496 0,0 -0.17804,2.50204 -0.17804,2.50204 0,0 25.56203,0.2325 25.56203,0.2325 0,0 0.1852,-2.48134 0.1852,-2.48134" />
      <path
         style="fill:#6700ff;fill-opacity:1;stroke:#000000;stroke-width:0.87704253;stroke-miterlimit:4;stroke-dasharray:none;stroke-dashoffset:0;stroke-opacity:1"
         inkscape:connector-curvature="0"
         id="path9618"
         d="m 450.53056,306.13378 c 3.19095,0.20343 5.53654,1.12047 7.04113,2.74933 1.48219,1.61479 2.11727,3.9447 1.90732,6.98987 -0.20909,3.03263 -1.15731,5.26222 -2.84593,6.69168 -1.70987,1.4197 -4.15679,2.07806 -7.33745,1.84438 -3.20958,-0.23581 -5.56665,-1.17086 -7.06676,-2.80684 -1.52275,-1.65037 -2.18415,-4.00272 -1.98202,-7.05683 0.20297,-3.06675 1.16904,-5.29883 2.89688,-6.69327 1.70629,-1.40479 4.16684,-1.9236 7.38683,-1.71832 0,0 0,0 0,0 m 0.1614,-2.3886 c -5.15341,-0.3337 -9.16017,0.30241 -12.0116,2.01762 -2.87639,1.70614 -4.43955,4.44678 -4.68559,8.21666 -0.24512,3.75586 0.94123,6.74888 3.55324,8.97734 2.58463,2.21034 6.45343,3.4519 11.58735,3.82398 5.11208,0.37049 9.0838,-0.45803 11.91324,-2.25815 2.80524,-1.80805 4.33842,-4.62346 4.59798,-8.34187 0.26052,-3.73224 -0.87638,-6.63915 -3.41627,-8.72212 -2.56655,-2.09971 -6.40694,-3.38117 -11.53835,-3.71346 0,0 0,0 0,0" />
      <path
         style="fill:#6700ff;fill-opacity:1;stroke:#000000;stroke-width:0.87704253;stroke-miterlimit:4;stroke-dasharray:none;stroke-dashoffset:0;stroke-opacity:1"
         inkscape:connector-curvature="0"
         id="path9620"
         d="m 421.26668,321.34941 c 0,0 -10.34573,-1.21932 -10.34573,-1.21932 0,0 1.06205,-17.15677 1.06205,-17.15677 0,0 11.20768,2.46508 11.20768,2.46508 0,0 0.17605,-2.7683 0.17605,-2.7683 0,0 -11.14872,-2.46775 -11.14872,-2.46775 0,0 -6.38418,-0.86798 -6.38418,-0.86798 0,0 -1.21923,19.99079 -1.21923,19.99079 0,0 -10.45097,-1.53056 -10.45097,-1.53056 0,0 -0.15258,2.56915 -0.15258,2.56915 0,0 27.09411,3.53066 27.09411,3.53066 0,0 0.16152,-2.545 0.16152,-2.545" />
      <path
         style="fill:#6700ff;fill-opacity:1;stroke:#000000;stroke-width:0.87704253;stroke-miterlimit:4;stroke-dasharray:none;stroke-dashoffset:0;stroke-opacity:1"
         inkscape:connector-curvature="0"
         id="path9622"
         d="m 368.27202,294.72676 c 3.34876,0.72382 5.82961,2.0094 7.4369,3.90775 1.58343,1.88054 2.2853,4.38526 2.1079,7.51461 -0.17666,3.11638 -1.14283,5.29744 -2.89984,6.54613 -1.77958,1.23567 -4.33796,1.51087 -7.67911,0.81486 -3.37184,-0.70241 -5.85771,-2.01568 -7.44808,-3.96225 -1.61433,-1.96538 -2.33895,-4.51685 -2.1715,-7.6538 0.16815,-3.15003 1.14548,-5.30707 2.9306,-6.46815 1.7624,-1.17535 4.34358,-1.42961 7.72313,-0.69915 0,0 0,0 0,0 m 0.13504,-2.45283 c -5.40905,-1.17467 -9.59297,-1.11625 -12.55115,0.24256 -2.98459,1.34576 -4.57869,3.95216 -4.78083,7.82509 -0.20138,3.85838 1.07843,7.15813 3.84269,9.85737 2.73508,2.67613 6.79238,4.63097 12.18588,5.74904 5.36975,1.11315 9.53673,0.86442 12.48907,-0.61075 2.92659,-1.48665 4.50294,-4.16406 4.72363,-7.98412 0.22151,-3.83441 -1.02251,-6.98951 -3.72402,-9.54733 -2.73007,-2.5796 -6.80011,-4.36239 -12.18527,-5.53186 0,0 0,0 0,0" />
      <path
         style="fill:#6700ff;fill-opacity:1;stroke:#000000;stroke-width:0.87704253;stroke-miterlimit:4;stroke-dasharray:none;stroke-dashoffset:0;stroke-opacity:1"
         inkscape:connector-curvature="0"
         id="path9624"
         d="m 325.96415,283.52036 c 3.38188,1.07976 5.87989,2.70063 7.52008,4.79061 1.61607,2.06952 2.34412,4.69067 2.18652,7.86416 -0.15695,3.16029 -1.11963,5.29116 -2.8894,6.39557 -1.79251,1.08904 -4.35486,1.04976 -7.72873,-3.6e-4 -3.40503,-1.05981 -5.88404,-2.76302 -7.49399,-4.92163 -1.63397,-2.18039 -2.37903,-4.86189 -2.23275,-8.04361 0.14688,-3.19504 1.11289,-5.28907 2.89661,-6.27914 1.76102,-1.00701 4.32852,-0.89533 7.74166,0.1944 0,0 0,0 0,0 m 0.11904,-2.48779 c -5.46308,-1.74996 -9.65343,-2.18978 -12.58049,-1.2172 -2.95336,0.95565 -4.51965,3.3999 -4.69472,7.32811 -0.1744,3.91336 1.12279,7.44214 3.88519,10.58257 2.73325,3.11265 6.79444,5.62703 12.24115,7.31665 5.42208,1.68198 9.62037,1.89083 12.59832,0.67023 2.95151,-1.23481 4.52464,-3.78971 4.72182,-7.66344 0.19793,-3.88834 -1.08081,-7.24696 -3.83292,-10.11427 -2.78153,-2.89246 -6.90006,-5.16063 -12.33835,-6.90265 0,0 0,0 0,0" />
      <path
         style="fill:#6700ff;fill-opacity:1;stroke:#000000;stroke-width:0.87704253;stroke-miterlimit:4;stroke-dasharray:none;stroke-dashoffset:0;stroke-opacity:1"
         inkscape:connector-curvature="0"
         id="path9626"
         d="m 284.13943,266.02995 c 3.24593,1.73979 5.67452,3.81096 7.28094,6.22864 1.58259,2.39243 2.30687,5.19462 2.17515,8.4077 -0.13116,3.19967 -1.05131,5.20909 -2.76176,6.03106 -1.73287,0.80228 -4.24283,0.39828 -7.43869,-1.38646 -3.22554,-1.80132 -5.58536,-4.00516 -7.11186,-6.54681 -1.54947,-2.56914 -2.23091,-5.52335 -2.11593,-8.74076 0.11546,-3.23093 0.9778,-5.11686 2.64764,-5.75593 1.64816,-0.66124 4.04841,0.007 7.32451,1.76256 0,0 0,0 0,0 m 0.0976,-2.51882 c -5.24377,-2.81655 -9.14607,-4.21133 -11.82111,-3.89966 -2.69942,0.28817 -4.0954,2.38785 -4.22836,6.35854 -0.13245,3.95561 1.04824,7.90753 3.5981,11.76162 2.52276,3.81862 6.35417,7.20439 11.51367,10.07986 5.13597,2.86235 9.26859,3.68223 12.17732,2.89334 2.88285,-0.80733 4.42541,-3.21533 4.59316,-7.13939 0.16838,-3.93896 -1.12725,-7.52307 -3.8426,-10.87329 -2.74426,-3.38051 -6.77041,-6.37737 -11.99018,-9.18102 0,0 0,0 0,0" />
      <path
         style="fill:#6700ff;fill-opacity:1;stroke:#000000;stroke-width:0.87704253;stroke-miterlimit:4;stroke-dasharray:none;stroke-dashoffset:0;stroke-opacity:1"
         inkscape:connector-curvature="0"
         id="path9628"
         d="m 248.21697,236.19688 c 2.18429,3.14271 4.00742,6.16464 5.21751,9.25696 1.19232,3.0574 1.82965,6.12986 1.74299,9.37311 -0.0863,3.22966 -0.83749,5.00118 -2.10929,5.18628 -1.28847,0.15651 -3.23656,-1.16805 -5.24514,-4.38606 -2.02734,-3.24806 -3.27843,-6.64149 -3.96585,-10.02695 -0.69767,-3.42525 -0.95636,-6.7857 -0.92034,-10.02599 0.0362,-3.25395 0.37406,-4.76472 1.11632,-4.56751 0.73261,0.16363 1.95909,2.01808 4.1638,5.19016 0,0 0,0 0,0 m 0.0545,-2.53975 c -3.52906,-5.08369 -5.1556,-8.60607 -5.97834,-9.6765 -0.83028,-1.10711 -0.97279,0.28483 -0.98848,4.28836 -0.0156,3.98823 0.0366,8.69323 0.82867,13.9712 0.78361,5.22733 2.39688,10.71805 5.63983,15.90761 3.22777,5.16524 6.60893,7.43046 8.96628,7.58892 2.33598,0.13082 3.64286,-1.8697 3.76061,-5.83043 0.1182,-3.97584 -1.02611,-8.02469 -3.24866,-12.35529 -2.24649,-4.37161 -5.46743,-8.83408 -8.97991,-13.89387 0,0 0,0 0,0" />
      <path
         style="fill:#6700ff;fill-opacity:1;stroke:#000000;stroke-width:0.87704253;stroke-miterlimit:4;stroke-dasharray:none;stroke-dashoffset:0;stroke-opacity:1"
         inkscape:connector-curvature="0"
         id="path9630"
         d="m 249.07409,190.38193 c -2.29471,3.24072 -3.5916,6.78258 -4.36744,10.27561 -0.76434,3.45215 -1.08621,6.84264 -1.04978,10.14079 0.0363,3.28427 0.43215,4.84178 1.23678,4.6943 0.81541,-0.18146 2.23998,-1.98258 4.52855,-5.18446 2.31007,-3.23196 4.24279,-6.32458 5.56033,-9.43853 1.33734,-3.14974 1.99427,-6.37912 1.92751,-9.72561 -0.067,-3.36068 -0.81634,-5.14456 -2.22099,-5.32424 -1.38603,-0.20929 -3.29868,1.29095 -5.61496,4.56214 0,0 0,0 0,0 m -0.0455,-2.60268 c 3.70769,-5.24261 7.13376,-7.72728 9.56847,-7.96049 2.45736,-0.26297 3.89337,1.85251 3.97792,5.9984 0.0842,4.12997 -1.1482,8.39099 -3.59865,12.87922 -2.42418,4.44579 -5.81384,9.03395 -9.50899,14.19742 -3.67767,5.13904 -5.62794,8.5727 -6.60375,9.64848 -0.96695,1.03936 -1.23773,-0.38858 -1.25913,-4.39899 -0.0215,-4.02581 0.15814,-8.75463 1.08746,-14.05893 0.9393,-5.35572 2.64658,-11.08738 6.33667,-16.30511 0,0 0,0 0,0" />
      <path
         style="fill:#6700ff;fill-opacity:1;stroke:#000000;stroke-width:0.87704253;stroke-miterlimit:4;stroke-dasharray:none;stroke-dashoffset:0;stroke-opacity:1"
         inkscape:connector-curvature="0"
         id="path9632"
         d="m 287.76966,158.23688 c -3.59552,1.999 -6.21895,4.46557 -7.94931,7.26864 -1.70496,2.77268 -2.49965,5.90106 -2.43003,9.31751 0.0693,3.40201 0.97051,5.3961 2.74188,6.04426 1.7951,0.62424 4.45619,-0.0891 8.0417,-2.05119 3.61939,-1.98065 6.39155,-4.18495 8.20549,-6.81044 1.84095,-2.65369 2.74914,-5.66721 2.68499,-9.1151 -0.0644,-3.46256 -1.06844,-5.61925 -2.97738,-6.39836 -1.88361,-0.80138 -4.68782,-0.27323 -8.31734,1.74468 0,0 0,0 0,0 m -0.0528,-2.68813 c 5.81012,-3.23689 10.41304,-4.35375 13.65665,-3.57049 3.27396,0.76242 4.9572,3.29303 5.03328,7.56045 0.0758,4.25094 -1.49034,8.20304 -4.67552,11.88571 -3.15102,3.64882 -7.71525,6.90015 -13.50491,10.06188 -5.76152,3.14636 -10.06385,4.64769 -12.96665,4.40168 -2.87595,-0.27119 -4.32989,-2.44819 -4.41561,-6.60602 -0.0861,-4.17388 1.23383,-8.37294 4.02588,-12.51827 2.82239,-4.18458 7.0651,-7.99385 12.84688,-11.21494 0,0 0,0 0,0" />
      <path
         style="fill:#6700ff;fill-opacity:1;stroke:#000000;stroke-width:0.87704253;stroke-miterlimit:4;stroke-dasharray:none;stroke-dashoffset:0;stroke-opacity:1"
         inkscape:connector-curvature="0"
         id="path9634"
         d="m 336.15919,137.76219 c -4.04905,1.35369 -7.0806,3.2425 -9.07367,5.74488 -1.96356,2.47645 -2.91642,5.46814 -2.8616,8.9762 0.0546,3.49316 1.08776,5.75488 3.10115,6.78857 2.0409,1.01415 5.09303,0.91349 9.13035,-0.40373 4.07571,-1.32974 7.16376,-3.07239 9.19373,-5.43392 2.06047,-2.38572 3.07046,-5.34543 3.02674,-8.87811 -0.0439,-3.54778 -1.12136,-5.89014 -3.23066,-7.02347 -2.08075,-1.15165 -5.19844,-1.13699 -9.28604,0.22958 0,0 0,0 0,0 m -0.0387,-2.75711 c 6.54347,-2.19452 11.63514,-2.52934 15.18681,-1.19693 3.58542,1.31611 5.40554,4.16247 5.45494,8.533 0.0492,4.35354 -1.69186,8.1517 -5.21448,11.39052 -3.48452,3.20961 -8.53443,5.75457 -15.05392,7.8748 -6.48746,2.10982 -11.4078,2.70385 -14.82085,1.67257 -3.3814,-1.04966 -5.07487,-3.62862 -5.14556,-7.90099 -0.071,-4.28896 1.51486,-8.26072 4.8309,-11.74739 3.35197,-3.51876 8.25095,-6.44188 14.76216,-8.62558 0,0 0,0 0,0" />
      <path
         style="fill:#6700ff;fill-opacity:1;stroke:#000000;stroke-width:0.87704253;stroke-miterlimit:4;stroke-dasharray:none;stroke-dashoffset:0;stroke-opacity:1"
         inkscape:connector-curvature="0"
         id="path9636"
         d="m 389.02197,124.04621 c -4.35281,0.85236 -7.59188,2.50989 -9.75986,4.7933 -2.13618,2.26093 -3.18706,5.18623 -3.15599,8.77663 0.0309,3.57509 1.12641,6.02632 3.28816,7.3575 2.19133,1.31507 5.43552,1.48133 9.77521,0.66539 4.38121,-0.82376 7.66412,-2.33803 9.84173,-4.54432 2.21004,-2.22794 3.31707,-5.09656 3.29913,-8.7094 -0.018,-3.62835 -1.15374,-6.18079 -3.38731,-7.5516 -2.2033,-1.38657 -5.50656,-1.64802 -9.90107,-0.7875 0,0 0,0 0,0 m -0.0193,-2.8209 c 7.03516,-1.38478 12.43816,-1.23916 16.19202,0.46843 3.78976,1.69435 5.6959,4.779 5.71262,9.24711 0.0167,4.45063 -1.85984,8.15892 -5.61996,11.12162 -3.71941,2.93644 -9.09043,5.06728 -16.09876,6.3779 -6.97293,1.304 -12.24767,1.37259 -15.91769,-0.14767 -3.63535,-1.53471 -5.44546,-4.37038 -5.4883,-8.74458 -0.043,-4.3913 1.70464,-8.2578 5.30588,-11.36543 3.64073,-3.13574 8.91468,-5.57963 15.91419,-6.95738 0,0 0,0 0,0" />
      <path
         style="fill:#6700ff;fill-opacity:1;stroke:#000000;stroke-width:0.87704253;stroke-miterlimit:4;stroke-dasharray:none;stroke-dashoffset:0;stroke-opacity:1"
         inkscape:connector-curvature="0"
         id="path9638"
         d="m 427.7588,138.65534 c 0,0 14.39436,-1.75195 14.39436,-1.75195 0,0 0.0142,-20.42021 0.0142,-20.42021 0,0 -15.69244,3.33516 -15.69244,3.33516 0,0 -0.005,-3.28949 -0.005,-3.28949 0,0 15.61171,-3.34427 15.61171,-3.34427 0,0 8.93195,-0.98967 8.93195,-0.98967 0,0 -0.0465,23.80617 -0.0465,23.80617 0,0 14.67998,-1.31515 14.67998,-1.31515 0,0 -0.0124,3.06328 -0.0124,3.06328 0,0 -37.87171,3.92762 -37.87171,3.92762 0,0 -0.004,-3.02149 -0.004,-3.02149" />
      <path
         style="fill:#6700ff;fill-opacity:1;stroke:#000000;stroke-width:0.87704253;stroke-miterlimit:4;stroke-dasharray:none;stroke-dashoffset:0;stroke-opacity:1"
         inkscape:connector-curvature="0"
         id="path9640"
         d="m 504.04378,110.72599 c -4.79907,0.15504 -8.40678,1.3394 -10.83817,3.33908 -2.39571,1.98165 -3.60561,4.84499 -3.63357,8.59021 -0.0278,3.72909 1.13799,6.47388 3.4994,8.2388 2.3944,1.75339 5.97471,2.46305 10.7581,2.34518 4.8298,-0.119 8.46492,-1.14241 10.89742,-3.07305 2.46872,-1.9479 3.72712,-4.79311 3.77077,-8.55827 0.0438,-3.78149 -1.15138,-6.59035 -3.5832,-8.39455 -2.39815,-1.81543 -6.02508,-2.64393 -10.87075,-2.4874 0,0 0,0 0,0 m 0.028,-2.94157 c 7.758,-0.25839 13.69047,0.76876 17.77424,3.15888 4.12369,2.38236 6.15865,5.90595 6.0984,10.56236 -0.06,4.63796 -2.18172,8.19363 -6.35424,10.66512 -4.12687,2.45044 -10.06248,3.80614 -17.78842,3.98883 -7.68533,0.18172 -13.52278,-0.70207 -17.54025,-2.85415 -3.97871,-2.16158 -5.95099,-5.52078 -5.92295,-10.08535 0.0282,-4.58265 2.04796,-8.21338 6.06973,-10.89461 4.06632,-2.70479 9.94642,-4.28406 17.66349,-4.54108 0,0 0,0 0,0" />
      <path
         style="fill:#6700ff;fill-opacity:1;stroke:#000000;stroke-width:0.87704253;stroke-miterlimit:4;stroke-dasharray:none;stroke-dashoffset:0;stroke-opacity:1"
         inkscape:connector-curvature="0"
         id="path9642"
         d="m 546.23669,132.20667 c 0,0 15.72903,0.40234 15.72903,0.40234 0,0 0.37876,-21.26274 0.37876,-21.26274 0,0 -17.17801,1.0391 -17.17801,1.0391 0,0 0.0527,-3.42702 0.0527,-3.42702 0,0 17.09047,-1.06092 17.09047,-1.06092 0,0 9.73954,0.34387 9.73954,0.34387 0,0 -0.4753,24.78024 -0.4753,24.78024 0,0 15.97944,0.88067 15.97944,0.88067 0,0 -0.0684,3.18688 -0.0684,3.18688 0,0 -41.29724,-1.73547 -41.29724,-1.73547 0,0 0.049,-3.14695 0.049,-3.14695" />
      <path
         style="fill:#6700ff;fill-opacity:1;stroke:#000000;stroke-width:0.87704253;stroke-miterlimit:4;stroke-dasharray:none;stroke-dashoffset:0;stroke-opacity:1"
         inkscape:connector-curvature="0"
         id="path9644"
         d="m 629.57013,114.94719 c -5.18619,-0.55776 -9.10884,0.0265 -11.77628,1.74515 -2.62824,1.70504 -3.98907,4.50476 -4.08686,8.39882 -0.0974,3.8771 1.11456,6.90812 3.63782,9.09815 2.5593,2.18307 6.41875,3.56002 11.58658,4.15566 5.2187,0.60151 9.15978,0.11625 11.81668,-1.47913 2.69651,-1.60732 4.10474,-4.36638 4.22013,-8.27768 0.11591,-3.92845 -1.12171,-7.04042 -3.71065,-9.33058 -2.55234,-2.29603 -6.45012,-3.74713 -11.68742,-4.31039 0,0 0,0 0,0 m 0.0835,-3.05761 c 8.38564,0.8934 14.75858,3.00161 19.11836,6.10675 4.40336,3.10338 6.52053,7.17123 6.37115,12.0055 -0.14878,4.81482 -2.48899,8.10657 -7.03272,10.04593 -4.49347,1.9241 -10.91375,2.30237 -19.26184,1.33182 -8.30236,-0.96523 -14.6057,-2.80935 -18.91627,-5.7274 -4.26805,-2.92113 -6.3483,-6.6836 -6.23575,-11.43105 0.113,-4.7665 2.37017,-8.26691 6.77251,-10.37977 4.45164,-2.13019 10.84505,-2.84028 19.18456,-1.95178 0,0 0,0 0,0" />
      <path
         style="fill:#6700ff;fill-opacity:1;stroke:#000000;stroke-width:0.87704253;stroke-miterlimit:4;stroke-dasharray:none;stroke-dashoffset:0;stroke-opacity:1"
         inkscape:connector-curvature="0"
         id="path9646"
         d="m 674.5979,144.23749 c 0,0 16.8309,3.19579 16.8309,3.19579 0,0 0.79032,-22.03188 0.79032,-22.03188 0,0 -18.40832,-1.97036 -18.40832,-1.97036 0,0 0.11899,-3.55631 0.11899,-3.55631 0,0 18.31492,1.93318 18.31492,1.93318 0,0 10.38314,2.15293 10.38314,2.15293 0,0 -0.95936,25.68204 -0.95936,25.68204 0,0 16.96214,4.0456 16.96214,4.0456 0,0 -0.1301,3.29682 -0.1301,3.29682 0,0 -44.01256,-9.4831 -44.01256,-9.4831 0,0 0.10993,-3.26471 0.10993,-3.26471" />
      <path
         style="fill:#6700ff;fill-opacity:1;stroke:#000000;stroke-width:0.87704253;stroke-miterlimit:4;stroke-dasharray:none;stroke-dashoffset:0;stroke-opacity:1"
         inkscape:connector-curvature="0"
         id="path9648"
         d="m 762.99778,143.61495 c -5.37068,-1.86082 -9.43442,-2.28673 -12.25377,-1.12693 -2.77786,1.15475 -4.25065,3.74375 -4.42312,7.76552 -0.17171,4.00407 1.0401,7.43656 3.63759,10.30349 2.63541,2.86832 6.60611,5.29766 11.95619,7.19482 5.40355,1.91611 9.43303,2.55664 12.16421,1.66908 2.77199,-0.88861 4.25366,-3.34424 4.44019,-7.36884 0.18736,-4.04243 -1.01709,-7.62856 -3.61111,-10.75192 -2.55654,-3.11873 -6.48576,-5.80579 -11.91018,-7.68522 0,0 0,0 0,0 m 0.14156,-3.15474 c 8.686,3.00027 15.05924,7.21184 19.40678,11.77244 4.39201,4.57263 6.41794,9.47303 6.18591,14.43538 -0.23108,4.9421 -2.61921,7.61985 -7.2409,8.23362 -4.56993,0.61331 -11.07306,-0.94561 -19.71691,-4.01986 -8.59441,-3.05667 -15.13659,-6.50329 -19.58825,-10.54574 -4.40676,-4.0353 -6.54878,-8.35549 -6.34435,-13.26285 0.20525,-4.92736 2.66002,-8.10182 7.29836,-9.26438 4.69091,-1.16918 11.36326,-0.33165 19.99936,2.65139 0,0 0,0 0,0" />
      <path
         style="fill:#6700ff;fill-opacity:1;stroke:#000000;stroke-width:0.87704253;stroke-miterlimit:4;stroke-dasharray:none;stroke-dashoffset:0;stroke-opacity:1"
         inkscape:connector-curvature="0"
         id="path9650"
         d="m 807.47895,188.36615 c 0,0 15.40484,10.62766 15.40484,10.62766 0,0 1.02878,-22.39441 1.02878,-22.39441 0,0 -16.83746,-10.08709 -16.83746,-10.08709 0,0 0.17203,-3.63532 0.17203,-3.63532 0,0 16.74262,10.0201 16.74262,10.0201 0,0 8.67158,7.63067 8.67158,7.63067 0,0 -1.13699,25.97907 -1.13699,25.97907 0,0 12.16939,14.6335 12.16939,14.6335 0,0 -0.11494,3.30512 -0.11494,3.30512 0,0 -36.25843,-32.74332 -36.25843,-32.74332 0,0 0.15858,-3.33598 0.15858,-3.33598" />
      <path
         style="fill:#6700ff;fill-opacity:1;stroke:#000000;stroke-width:0.87704253;stroke-miterlimit:4;stroke-dasharray:none;stroke-dashoffset:0;stroke-opacity:1"
         inkscape:connector-curvature="0"
         id="path9652"
         d="m 846.23426,245.03163 c 2.8847,-5.49261 4.24181,-9.01654 4.81936,-10.08729 0.56904,-1.04252 0.72626,0.41268 0.74444,4.40087 0.0181,3.97041 -0.003,8.49732 -0.52143,13.52567 -0.52595,5.06049 -1.64725,10.61938 -4.26111,16.26406 -2.64044,5.70205 -5.60391,8.47608 -7.58685,8.96705 -2.01263,0.51095 -3.28332,-1.39441 -3.48401,-5.46166 -0.2016,-4.08551 0.72033,-8.3246 2.64514,-12.80984 1.89638,-4.46195 4.7304,-9.25036 7.64446,-14.79886 0,0 0,0 0,0 m -0.10565,-3.15267 c -4.66665,8.87541 -9.97064,15.92132 -13.62151,22.32614 -3.6891,6.43526 -5.52736,12.05042 -5.23838,17.11086 0.28779,5.03944 2.60321,7.15695 6.43241,5.8626 3.78572,-1.27302 9.1859,-5.79013 13.40973,-14.92153 4.19855,-9.07676 5.06725,-18.15278 4.82073,-25.94832 -0.24399,-7.75061 -0.81762,-14.00481 -0.76413,-18.87479 0.0537,-4.89013 0.82117,-6.07972 0.77634,-3.47023 -0.0453,2.64626 -1.1766,9.09322 -5.81519,17.91527 0,0 0,0 0,0" />
      <path
         style="fill:#6700ff;fill-opacity:1;stroke:#000000;stroke-width:0.87704253;stroke-miterlimit:4;stroke-dasharray:none;stroke-dashoffset:0;stroke-opacity:1"
         inkscape:connector-curvature="0"
         id="path9654"
         d="m 785.48683,295.01702 c 5.8469,-2.89538 10.26272,-4.10574 13.28289,-3.58904 2.97518,0.52193 4.56625,2.81693 4.85167,7.00963 0.28415,4.17391 -0.8865,8.13722 -3.53014,11.87093 -2.68394,3.74605 -6.91532,7.11889 -12.73687,10.05165 -5.88124,2.96283 -10.46657,3.95493 -13.66057,3.12442 -3.2423,-0.82994 -5.03327,-3.37281 -5.36697,-7.63101 -0.33521,-4.27744 0.9583,-8.12701 3.87797,-11.5413 2.87564,-3.40741 7.3751,-6.37017 13.28202,-9.29528 0,0 0,0 0,0 m -0.24416,-3.31333 c -9.45978,4.67388 -16.93045,8.96985 -21.94665,13.74647 -5.06958,4.78961 -7.39517,9.83128 -6.96786,15.10998 0.42551,5.25659 3.39329,8.24001 8.88695,8.95414 5.43064,0.7128 12.97346,-1.1187 22.38138,-5.86865 9.35065,-4.72105 16.11695,-10.14486 20.55372,-15.81289 4.39079,-5.64562 6.33795,-11.12752 6.01327,-16.21616 -0.32603,-5.1099 -2.75267,-7.37704 -7.58189,-7.2433 -4.88474,0.14198 -11.93698,2.6851 -21.33892,7.33041 0,0 0,0 0,0" />
    </g>
    <g
       inkscape:corner7="2.0625 : -0.289375 : 0.25 : 1"
       inkscape:corner0="2.721519 : -0.075949367 : 0 : 1"
       inkscape:perspectiveID="#perspective10756"
       style="opacity:0.83800001;fill:#6700ff;fill-opacity:1;stroke:#000000;stroke-width:0.75590551;stroke-miterlimit:4;stroke-dasharray:none;stroke-dashoffset:0;stroke-opacity:1;paint-order:markers stroke fill"
       id="g10758"
       sodipodi:type="inkscape:box3d">
      <path
         points="0.83795232,359.86647 0.87117905,359.85562 0.84224735,359.70395 0.80902062,359.7148 "
         d="m 0.80902062,359.7148 0.0289317,0.15167 0.0332267,-0.0109 -0.0289317,-0.15167 z"
         inkscape:box3dsidetype="6"
         style="fill:#353564;fill-rule:evenodd;stroke:none;stroke-width:0.74016476;stroke-linejoin:round"
         id="path10760"
         sodipodi:type="inkscape:box3dside" />
      <path
         points="0.87499386,359.92006 0.91537065,359.90687 0.87117905,359.85562 0.83795232,359.86647 "
         d="m 0.83795232,359.86647 0.0370415,0.0536 0.0403768,-0.0132 -0.0441916,-0.0513 z"
         inkscape:box3dsidetype="13"
         style="fill:#afafde;fill-rule:evenodd;stroke:none;stroke-width:0.74016476;stroke-linejoin:round"
         id="path10768"
         sodipodi:type="inkscape:box3dside" />
      <path
         points="0.88021313,359.72257 0.91537065,359.90687 0.87117905,359.85562 0.84224735,359.70395 "
         d="m 0.84224735,359.70395 0.0379658,0.0186 0.0351575,0.1843 -0.0441916,-0.0513 z"
         inkscape:box3dsidetype="11"
         style="fill:#e9e9ff;fill-rule:evenodd;stroke:none;stroke-width:0.74016476;stroke-linejoin:round"
         id="path10770"
         sodipodi:type="inkscape:box3dside" />
      <path
         points="0.83983635,359.73576 0.88021313,359.72257 0.84224735,359.70395 0.80902062,359.7148 "
         d="m 0.80902062,359.7148 0.0308157,0.021 0.0403768,-0.0132 -0.0379658,-0.0186 z"
         inkscape:box3dsidetype="5"
         style="fill:#4d4d9f;fill-rule:evenodd;stroke:none;stroke-width:0.74016476;stroke-linejoin:round"
         id="path10762"
         sodipodi:type="inkscape:box3dside" />
      <path
         points="0.87499386,359.92006 0.91537065,359.90687 0.88021313,359.72257 0.83983635,359.73576 "
         d="m 0.83983635,359.73576 0.0351575,0.1843 0.0403768,-0.0132 -0.0351575,-0.1843 z"
         inkscape:box3dsidetype="14"
         style="fill:#d7d7ff;fill-rule:evenodd;stroke:none;stroke-width:0.74016476;stroke-linejoin:round"
         id="path10766"
         sodipodi:type="inkscape:box3dside" />
      <path
         points="0.83983635,359.73576 0.87499386,359.92006 0.83795232,359.86647 0.80902062,359.7148 "
         d="m 0.80902062,359.7148 0.0308157,0.021 0.0351575,0.1843 -0.0370415,-0.0536 z"
         inkscape:box3dsidetype="3"
         style="fill:#8686bf;fill-rule:evenodd;stroke:none;stroke-width:0.74016476;stroke-linejoin:round"
         id="path10764"
         sodipodi:type="inkscape:box3dside" />
    </g>
    <g
       id="g980">
      <g
         sodipodi:type="inkscape:box3d"
         id="g1669"
         style="opacity:0.83800001;fill:#6e00ff;fill-opacity:1;stroke:#98d300;stroke-width:0.75590551;stroke-miterlimit:4;stroke-dasharray:none;stroke-dashoffset:0;stroke-opacity:1;paint-order:markers stroke fill"
         inkscape:perspectiveID="#perspective1683"
         inkscape:corner0="-0.9981739 : 0.15960334 : 0 : 1"
         inkscape:corner7="-0.99756098 : 0.087063104 : 0.21425509 : 1">
        <path
           sodipodi:type="inkscape:box3dside"
           id="path1671"
           style="fill:#353564;fill-rule:evenodd;stroke:none;stroke-width:0.37127629;stroke-linejoin:round"
           inkscape:box3dsidetype="6"
           d="m 885.60249,209.92424 22.67275,41.34889 28.94607,-16.12173 -22.67275,-41.34889 z"
           points="908.27524,251.27313 937.22131,235.1514 914.54856,193.80251 885.60249,209.92424 " />
        <path
           sodipodi:type="inkscape:box3dside"
           id="path1681"
           style="fill:#e9e9ff;fill-rule:evenodd;stroke:none;stroke-width:0.37127629;stroke-linejoin:round"
           inkscape:box3dsidetype="11"
           d="m 914.54856,193.80251 -33.7381,27.13166 16.97515,30.95802 39.4357,-16.74079 z"
           points="880.81046,220.93417 897.78561,251.89219 937.22131,235.1514 914.54856,193.80251 " />
        <path
           sodipodi:type="inkscape:box3dside"
           id="path1677"
           style="fill:#d7d7ff;fill-rule:evenodd;stroke:none;stroke-width:0.37127629;stroke-linejoin:round"
           inkscape:box3dsidetype="14"
           d="m 859.13847,233.00455 16.97515,30.95802 21.67199,-12.07038 -16.97515,-30.95802 z"
           points="876.11362,263.96257 897.78561,251.89219 880.81046,220.93417 859.13847,233.00455 " />
        <path
           sodipodi:type="inkscape:box3dside"
           id="path1679"
           style="fill:#afafde;fill-rule:evenodd;stroke:none;stroke-width:0.37127629;stroke-linejoin:round"
           inkscape:box3dsidetype="13"
           d="m 908.27524,251.27313 -32.16162,12.68944 21.67199,-12.07038 39.4357,-16.74079 z"
           points="876.11362,263.96257 897.78561,251.89219 937.22131,235.1514 908.27524,251.27313 " />
        <path
           sodipodi:type="inkscape:box3dside"
           id="path1673"
           style="fill:#4d4d9f;fill-rule:evenodd;stroke:none;stroke-width:0.37127629;stroke-linejoin:round"
           inkscape:box3dsidetype="5"
           d="m 885.60249,209.92424 -26.46402,23.08031 21.67199,-12.07038 33.7381,-27.13166 z"
           points="859.13847,233.00455 880.81046,220.93417 914.54856,193.80251 885.60249,209.92424 " />
        <path
           sodipodi:type="inkscape:box3dside"
           id="path1675"
           style="fill:#8686bf;fill-rule:evenodd;stroke:none;stroke-width:0.37127629;stroke-linejoin:round"
           inkscape:box3dsidetype="3"
           d="m 885.60249,209.92424 -26.46402,23.08031 16.97515,30.95802 32.16162,-12.68944 z"
           points="859.13847,233.00455 876.11362,263.96257 908.27524,251.27313 885.60249,209.92424 " />
      </g>
      <text
         xml:space="preserve"
         style="font-style:normal;font-weight:normal;font-size:30.35590172px;line-height:1.25;font-family:sans-serif;letter-spacing:0px;word-spacing:0px;fill:#000000;fill-opacity:1;stroke:none;stroke-width:0.75889754"
         x="659.08716"
         y="774.66455"
         id="text10776"
         transform="matrix(0.68866219,-0.66558785,0.58831348,0.88348933,0,0)"><tspan
           sodipodi:role="line"
           id="tspan10774"
           x="659.08716"
           y="774.66455"
           style="font-style:italic;font-variant:normal;font-weight:bold;font-stretch:normal;font-size:36.42708206px;font-family:sans-serif;-inkscape-font-specification:'sans-serif Bold Italic';fill:#6e00ff;fill-opacity:1;stroke-width:0.75889754">G</tspan></text>
    </g>
    <flowRoot
       xml:space="preserve"
       id="flowRoot940"
       style="fill:black;fill-opacity:1;stroke:none;font-family:sans-serif;font-style:normal;font-weight:normal;font-size:40px;line-height:1.25;letter-spacing:0px;word-spacing:0px"><flowRegion
         id="flowRegion942"><rect
           id="rect944"
           width="443.97958"
           height="75.612244"
           x="81.428574"
           y="249.48979" /></flowRegion><flowPara
         id="flowPara946" /></flowRoot>    <text
       xml:space="preserve"
       style="font-style:normal;font-variant:normal;font-weight:normal;font-stretch:normal;font-size:48px;line-height:1.25;font-family:sans-serif;-inkscape-font-specification:sans-serif;letter-spacing:0px;word-spacing:0px;fill:#ffffff;fill-opacity:1;stroke:none"
       x="135.71429"
       y="90.510223"
       id="text950"><tspan
         sodipodi:role="line"
         id="tspan948"
         x="135.71429"
         y="90.510223"
         style="font-size:42.66666794px">GENERATORY CIGW</tspan><tspan
         sodipodi:role="line"
         x="135.71429"
         y="150.51022"
         id="tspan919"
         style="font-size:42.66666794px">PSEUDOLOSOWYCH</tspan></text>
  </g>
</svg>
