<?xml version="1.0" standalone="no"?>
<!DOCTYPE svg PUBLIC "-//W3C//DTD SVG 20010904//EN"
 "http://www.w3.org/TR/2001/REC-SVG-20010904/DTD/svg10.dtd">
<svg version="1.0" xmlns="http://www.w3.org/2000/svg"
 width="477.000000pt" height="282.000000pt" viewBox="0 0 477.000000 282.000000"
 preserveAspectRatio="xMidYMid meet">
<metadata>
Created by potrace 1.15, written by Peter Selinger 2001-2017
</metadata>
<g transform="translate(0.000000,282.000000) scale(0.100000,-0.100000)"
fill="#000000" stroke="none">
<path d="M1138 2653 c-27 -29 -22 -48 25 -106 58 -71 166 -260 226 -395 l50
-113 -95 3 -96 3 -57 140 c-54 135 -127 262 -229 402 l-45 62 -39 -30 c-22
-18 -35 -36 -31 -42 3 -7 21 -32 38 -57 58 -81 153 -253 204 -367 l50 -113
-569 0 -570 0 0 -25 0 -25 577 -2 577 -3 27 -91 c78 -261 78 -697 0 -958 l-27
-91 -577 -3 -577 -2 0 -25 0 -25 570 0 569 0 -50 -112 c-51 -115 -146 -287
-204 -368 -17 -25 -35 -50 -38 -57 -4 -6 9 -24 31 -42 l39 -30 45 62 c102 140
175 267 229 402 l57 140 96 3 95 3 -50 -113 c-60 -135 -168 -324 -226 -395
-48 -58 -53 -81 -23 -108 18 -16 44 -17 407 -12 451 6 582 19 812 77 477 121
909 377 1214 720 131 146 257 310 291 378 l26 52 440 0 440 0 0 25 0 25 -440
0 -440 0 -26 53 c-66 130 -336 444 -510 593 -260 223 -648 419 -1004 509 -209
52 -360 66 -805 72 -378 5 -391 5 -407 -14z m866 -113 c233 -24 402 -62 586
-132 354 -134 656 -335 883 -586 94 -104 260 -315 293 -372 l20 -35 -20 -35
c-33 -58 -199 -268 -293 -372 -174 -193 -381 -347 -642 -478 -392 -196 -707
-260 -1281 -260 -143 0 -260 2 -260 4 0 3 34 58 75 124 173 273 285 673 285
1017 0 343 -115 753 -288 1023 -40 62 -72 115 -72 117 0 3 117 5 260 5 189 0
314 -6 454 -20z m-523 -646 c78 -261 78 -697 0 -958 l-27 -91 -92 -3 c-56 -2
-92 1 -92 7 0 6 11 45 25 88 13 43 31 137 40 208 29 253 12 583 -40 748 -14
43 -25 82 -25 88 0 6 36 9 92 7 l92 -3 27 -91z"/>
</g>
</svg>
